<svg xmlns="http://www.w3.org/2000/svg" xmlns:xlink="http://www.w3.org/1999/xlink" viewBox="0 0 500 500"><defs><style>.cls-1,.cls-10,.cls-17,.cls-8{fill:none;}.cls-2{fill:#fff;}.cls-3{clip-path:url(#clip-path);}.cls-4{fill:#dbdfff;}.cls-5{fill:#e0e6ff;}.cls-6{fill:#939fff;}.cls-7{fill:#b4b4b5;}.cls-8{stroke:#939fff;}.cls-10,.cls-17,.cls-8{stroke-linecap:round;stroke-linejoin:round;}.cls-10,.cls-8{stroke-width:0.75px;}.cls-9{fill:#8c8889;}.cls-10{stroke:#c1caff;}.cls-11{fill:#ffc5b3;}.cls-12{fill:#231f20;}.cls-13{fill:#f93;}.cls-14{fill:#ffbcaa;}.cls-15{fill:#fcb677;}.cls-16{fill:#d1d4fb;}.cls-17,.cls-20{stroke:#f93;}.cls-18{fill:#e38168;}.cls-19{fill:#fec4ad;}.cls-20{fill:#fcfbfa;stroke-miterlimit:10;}</style><clipPath id="clip-path"><rect class="cls-1" x="73.26" y="34.71" width="353.49" height="200.87" rx="16.43"/></clipPath></defs><g id="BACKGROUND"><rect class="cls-2" width="500" height="500"/><g class="cls-3"><rect class="cls-4" x="73.26" y="34.71" width="353.49" height="214.23"/><rect class="cls-2" x="65.5" y="85.51" width="365.77" height="6.14"/><rect class="cls-2" x="330.3" y="28.89" width="6.22" height="220.04"/><rect class="cls-2" x="167.45" y="28.89" width="6.22" height="220.04"/><rect class="cls-2" x="64.95" y="79.72" width="366.32" height="1.68"/><rect class="cls-2" x="64.95" y="72.8" width="366.32" height="1.68"/><rect class="cls-2" x="64.95" y="65.87" width="366.32" height="1.68"/><rect class="cls-2" x="64.95" y="58.95" width="366.32" height="1.68"/><rect class="cls-2" x="64.95" y="52.03" width="366.32" height="1.68"/><rect class="cls-2" x="64.95" y="45.11" width="366.32" height="1.68"/><rect class="cls-2" x="64.95" y="38.19" width="366.32" height="1.68"/></g><ellipse class="cls-5" cx="428.7" cy="437.29" rx="28.64" ry="5.73"/><path class="cls-6" d="M408.42,370.31c0-2.09,8.35-3.78,18.66-3.78s18.65,1.69,18.65,3.78-8.35,3.78-18.65,3.78S408.42,372.4,408.42,370.31Z"/><path class="cls-7" d="M431.43,315.67c-8.66-3.53-15.94-4.47-20.87-27.35-3-14-3.46-30.54-3.46-30.54s26.78,23.36,28.87,39.16S431.43,315.67,431.43,315.67Z"/><path class="cls-8" d="M420.62,285s8.23,14.45,10.81,30.68c4,25-.48,97.34-.48,97.34"/><path class="cls-9" d="M423.73,336s12.19-12.59-.45-26.48-26.23-18.31-26.23-18.31,1.13,21.71,8.56,34.12S423.73,336,423.73,336Z"/><path class="cls-10" d="M431,415.76s5-36.83-9.36-82.9c-3.33-10.66-14.83-30.09-14.83-30.09"/><path class="cls-9" d="M436.47,323.5s-12.94-16.49-1-40.14,25.33-33.17,25.33-33.17.07,33.06-6.7,53.38S436.47,323.5,436.47,323.5Z"/><path class="cls-10" d="M431,413s1.4-63.2,5.52-89.51c2.64-16.84,15.21-53.84,15.21-53.84"/><path class="cls-7" d="M481.93,297.16s-14.1,16.33-20.92,21.33c-12.31,9-21.12,4.9-18.05-4.92C447.06,300.44,481.93,297.16,481.93,297.16Z"/><path class="cls-8" d="M466.55,304.68c-5.73,3.71-42.54,14-36.86,108.94"/><path class="cls-7" d="M380.54,327.75s14.1,16.33,20.92,21.33c12.3,9,21.11,4.89,18.05-4.93C415.4,331,380.54,327.75,380.54,327.75Z"/><path class="cls-8" d="M394.89,336c5.73,3.7,41.58,9.74,36.06,77.06"/><path class="cls-9" d="M437.09,350.72c6.74-1.23,12.13-.93,18.86-15.45a122.43,122.43,0,0,0,6.74-19.78s-22.57,12.05-26.27,22.25S437.09,350.72,437.09,350.72Z"/><path class="cls-9" d="M450.82,328.74S439.28,344.13,435,354.46C426.05,375.68,429,410,429,410"/><path class="cls-7" d="M408.51,436.7s7,3,20.79,3a45.83,45.83,0,0,0,16.43-3V370.31s-1.67,2.68-17.1,2.68c-17.1,0-20.12-2.68-20.12-2.68Z"/></g><g id="OBJECTS"><path class="cls-7" d="M77.61,455.06h.11c17.39-2,33.86-7.13,51.44-8.32,8-.54,16.55-1.26,23.42-5.06,5.34-2.95,11-9.21,2.36-12.13-7.21-2.42-15.3-2.4-22.92-2.9-9.05-.6-18.15-1.45-27.21-.46-10.32,1.13-19.91,4.95-30.22,6.11-5.9.66-11.77,1.14-17.61,2.2-6.68,1.21-27.59,5.43-18.25,14.35C47.06,456.79,66.44,456.34,77.61,455.06Z"/><path class="cls-7" d="M195.56,444.65c3,.62,6,.86,8.34,1.29,8.26,1.49,16.62,3,24.14,7.5,11.94,7.09,24.27,12.5,37.87,12.41,11.29-.08,22.2-3.24,33.26-5.41,14.69-2.89,29.93-3.23,44.44-7.14,3.54-.95,7.08-2.37,8.55-4.66,2.74-4.25-3-8.84-9.25-11.09-12.18-4.38-26.94-4.45-40.76-3.34-6.32.5-12.63,1.23-19,1.09-25-.55-47.79-9.35-73.48-8.9-6.72.11-15.22.08-21.3,3.8-3.26,2-4.69,4.5-2.6,8.45C187.7,442.27,191.57,443.81,195.56,444.65Z"/><polygon class="cls-11" points="107.69 408.34 107.34 428.19 118.47 427.31 120.55 406.97 107.69 408.34"/><path class="cls-2" d="M130.61,435.13c2.28-.29,4,.54,4.72,1.76s-1,5.11-5.42,6.17c-5.5,1.3-8.44,1-11.26.38-4.79-1-7.19-4.22-10.34-4s-5.52-1.29-5.28-3.87,2.43-4.67,3.29-4.74S130.61,435.13,130.61,435.13Z"/><path class="cls-12" d="M122.49,426.19c-.6-1.09-2.68-3.33-3.74-3.31-6.92.11-5.16,3-7,3.46-2.86.72-3.9-.17-4.42-1.59,0,0-1.35-.54-1.42,1.16s-1.58,1.65-1.75,4.77,2.83,6.16,6.53,6.78,7.26,4.14,13,4.44c7.16.37,10.5-1.28,11.36-3.59s-1.9-4.72-7.36-7.76C123.22,428.06,123.14,427.39,122.49,426.19Z"/><path class="cls-9" d="M93.51,262.74S99.42,312,100,322.47c.25,5,3.35,18,4.31,40.4,1,24,2.72,56.06,2.72,56.06s12.39,1.91,12.39,1.55c0-.2,6.74-39.56,10.55-65.22,2.93-19.78,2.81-37.33,3.8-50.84,1.88-25.76-.44-64.15-.44-64.15l-21.87-9.22Z"/><path class="cls-12" d="M109.81,378.62c1.47-17.31,3.85-34.18,1.47-51.55-2.51-18.3,4.33-52.53.08-70.39-1-4.4-16.3,8.6-16.8,4.19l-1,1.87S99.42,312,100,322.47c.25,5,3.35,18,4.31,40.4,1,24,2.72,56.06,2.72,56.06l1.68.25A305.16,305.16,0,0,1,109.81,378.62Z"/><polygon class="cls-11" points="68.51 412.78 68.16 432.63 79.29 431.75 81.36 411.4 68.51 412.78"/><path class="cls-9" d="M119.79,227.93s-1.71,7.58-4.12,18.22c-3.94,17.48-9.8,43.21-13.08,57.14C100.3,313,96,336.53,91.78,360c-5.45,30.63-10.62,61.23-10.62,61.23l-9.11.34-5.43.48s.61-41.14-.29-88.1C65.91,312.23,63,284.39,63,273.35c.13-34.85,10.81-55.2,10.81-55.2Z"/><path class="cls-12" d="M119.79,227.93s-1.71,7.58-4.12,18.22c-14.4,2.21-30.27,4.11-35.8,4.11-8.61,0-4.63,37.11-2,57.66s-1.33,47.72-5.3,65.62c-3,13.52-1.47,37.25-.54,48l-5.43.48s.61-41.14-.29-88.1C65.91,312.23,63,284.39,63,273.35c.13-34.85,10.81-55.2,10.81-55.2Z"/><path class="cls-2" d="M91.43,439.57c2.27-.29,4,.54,4.71,1.75s-1,5.12-5.41,6.17c-5.51,1.31-8.44,1-11.26.38-4.79-1-7.19-4.22-10.34-4S63.6,442.6,63.85,440s2.43-4.67,3.29-4.75S91.43,439.57,91.43,439.57Z"/><path class="cls-12" d="M83.31,430.63c-.6-1.09-2.68-3.33-3.74-3.32-6.93.11-5.16,3-7,3.47-2.85.71-3.9-.17-4.41-1.6,0,0-1.36-.53-1.43,1.16S65.12,432,65,435.12s2.82,6.16,6.52,6.77,7.26,4.15,13,4.45c7.16.36,10.51-1.28,11.36-3.6S94,438,88.51,435C84,432.49,84,431.83,83.31,430.63Z"/><path class="cls-13" d="M151.94,153.9c1.52-3,2.8-10,2.8-10L165.67,148c2.61,8.94,21.91,43.88,25.85,49.39,1.82,2.55,40.39,21.75,40.39,21.75l-2,11.22s-36.27-5.53-53.28-16c-4.78-2.94-6.16-7.13-9.15-11.06-5.11-6.7-17.27-18.43-19.94-29.62S148.26,161,151.94,153.9Z"/><path class="cls-14" d="M141.43,110.05a33.49,33.49,0,0,1-2.83,5.3c-2.43,4-7.18,8.41-8.86,9.28a63.81,63.81,0,0,1-12,3.38s7.74,23.32,19.51,28.24C159.81,165.65,157.4,141,157.4,141s-5.79-6.46-7.32-9.82c-.91-2,1.75-9.66,1.75-9.66Z"/><path class="cls-2" d="M151.84,134.32s-.72,10.41-12.2,9c-13.88-1.73-14.72-17-14.72-17l-14.23,2.42,9.8,30.35,29.35,8.24L159.69,141Z"/><path class="cls-15" d="M145.08,210.53c2.86-7.26,20.59-62.51,20.59-62.51L152.6,132.71s-.9,28-14,28.32c-17.88-7.05-18.7-33.89-18.7-33.89L97,131.79S84.56,170.4,79.45,185.15,67.31,236,67.31,236c31.74,12.53,62,10.58,69.08,6.49C136.39,242.45,142.21,217.78,145.08,210.53Z"/><path class="cls-14" d="M167.86,97c1.64,1.88,4.29,5.62,3.85,7.68s-1.45,8.16-2.74,11.53-4.05,12.25-5.8,16.11-2.76,5.08-3.94,5.52-11.48-3-13.2-4.54-9.26-9.47-6.31-18c0,0-4.33.69-5.09-8-.19-2.26,8.85-8,10.37-10.17,3.71-5.16,14.9-.17,18.19.32S167.86,97,167.86,97Z"/><path class="cls-12" d="M171.71,104.68s-.35-3.07-3-2.59-7.74-.23-11.4-1.61a27.05,27.05,0,0,1-6.79-4s-1.55,5.32-3,6.46-4.23,2.2-4.88,3.89a25.2,25.2,0,0,0-1,3.45s-1.42-3.69-3.46-3.66-3,3.19-1.51,5.17a32.35,32.35,0,0,0,3,3.54l.86,13.18s-5-15.76-6-21.45c-1.46-8,.13-16.36,4.41-17.07,0,0,2.52-8.63,12.05-7.57s24.47,11,24.87,15.85C176.25,102.19,171.71,104.68,171.71,104.68Z"/><path class="cls-12" d="M163.57,126.85a11.48,11.48,0,0,0-5.92-2.11c-3.42-.45-6.65.37-9,.32s-5.94-5-5.75-9.9.78-9.6.78-9.6l-2,1.12s-1.43,8.63-2.72,13.57a15.71,15.71,0,0,0,4.69,15.42c4.77,4.52,13.35,5.61,15.39,4.49s3.59-4.22,4.49-7.12a30.77,30.77,0,0,0,1.24-4.26C164.81,128.3,164,127.21,163.57,126.85Z"/><path class="cls-12" d="M162.28,108.61a6.85,6.85,0,0,0-5.69,0c-1,.43-.87,1.24.14.9a8.35,8.35,0,0,1,5.27.17C163,110,163.24,109,162.28,108.61Z"/><path class="cls-12" d="M171,112.86c.19-.25-.09-.77-.44-1.08a3.88,3.88,0,0,0-2.3-1.09c-.49,0-.48.67-.13.82C170.42,112.42,170.72,113.27,171,112.86Z"/><path class="cls-12" d="M159.67,115.4a1.53,1.53,0,0,0-.77-2,1.48,1.48,0,0,0-2,.77,1.52,1.52,0,0,0,.77,2A1.49,1.49,0,0,0,159.67,115.4Z"/><path class="cls-12" d="M168.08,116.24a1.2,1.2,0,0,0-1.8.83v.08a1.17,1.17,0,0,0,1.85,1.11l.06,0A1.19,1.19,0,0,0,168.08,116.24Z"/><path class="cls-12" d="M160.53,125.53c-.42-.4,2.07-.47,2.33-.54,1.71-.44.47-2.22.12-3.18a6.27,6.27,0,0,1,.17-3.66c.12-.48.81-1.89,1-1.81a10.79,10.79,0,0,0-.75,2.64,7.06,7.06,0,0,0,.93,3.51,3.05,3.05,0,0,1,.49,2.52,1.51,1.51,0,0,1-1.19.88A4.12,4.12,0,0,1,160.53,125.53Z"/><path class="cls-12" d="M150.15,110.81c0,.35.79.76.92.89s.09.26.52,3c.32,2,2.41,3.62,6.41,3.94,3.05.24,3.74-2.05,4.43-3s1-1,1.46-.92.63.29.73,1.42-1,3.88,2,4.42c.89.16,2-.42,2.89-1.75a25.94,25.94,0,0,0,1.46-2.39,5.6,5.6,0,0,0,.86-2c.11-.64-.8-1.09-2.61-1.41a5.39,5.39,0,0,0-2.5,0c-.7.22-1.22.82-2.5.45-.5-.14-.41-.53-1.32-1.25s-6.16-2.09-7.94-2.49-4.33-.73-4.57-.13A4.53,4.53,0,0,0,150.15,110.81Zm15.63,4.37c.21-.88.68-1.35,2.54-1,2.87.51,2.7,1.19,1.15,3.72-1.06,1.75-1.57,2.33-2.49,2.25-1.47-.13-1.6-1.44-1.53-2.82A8.65,8.65,0,0,1,165.78,115.18ZM153,110.71c.48-.31,3.91.77,6.1,1.37s2.92.8,2.93,1.64a8.11,8.11,0,0,1-1,2.62c-.68,1.24-1.29,2.27-4.79,1.5-2.47-.54-4-1.92-4.12-3.91C152.05,112.19,152.56,111,153,110.71Zm-10.1-1.55,7.68,2.23,2-2.07s-6.69-1.56-7.42-1.86a24.89,24.89,0,0,0-4.35-.29Z"/><rect class="cls-9" x="230.16" y="378.56" width="6.17" height="41.02" transform="translate(466.48 798.13) rotate(180)"/><rect class="cls-7" x="228.28" y="369.85" width="9.92" height="8.71" transform="translate(466.48 748.4) rotate(180)"/><rect class="cls-7" x="228.28" y="415.22" width="9.92" height="8.71" transform="translate(466.48 839.15) rotate(180)"/><rect class="cls-9" x="221.22" y="353.37" width="24.05" height="16.48" transform="translate(466.48 723.22) rotate(180)"/><rect class="cls-9" x="200.9" y="348.44" width="67.09" height="12.34" rx="1.28" transform="translate(468.89 709.22) rotate(180)"/><polygon class="cls-9" points="209.34 432.25 228.28 422.86 228.28 416.31 206.85 430.67 209.34 432.25"/><path class="cls-9" d="M202.42,434.09a4.44,4.44,0,1,0,4.43-4.44A4.43,4.43,0,0,0,202.42,434.09Z"/><path class="cls-9" d="M228.8,440.09a4.44,4.44,0,1,0,4.44-4.44A4.43,4.43,0,0,0,228.8,440.09Z"/><polygon class="cls-9" points="257.14 432.25 238.2 422.86 238.2 416.31 259.63 430.67 257.14 432.25"/><path class="cls-9" d="M264.07,434.09a4.44,4.44,0,1,1-4.44-4.44A4.43,4.43,0,0,1,264.07,434.09Z"/><rect class="cls-9" x="232.04" y="419.58" width="2.4" height="20.46" transform="translate(466.48 859.61) rotate(180)"/><path class="cls-12" d="M186.07,355.32s-5.59-14.88-5.68-58-9.4-72.54-8.59-76.24l4.56-4.41h62.37s24.58,44,27.8,59,7.73,76.82,7.73,76.82Z"/><path class="cls-15" d="M191.69,355.32s-5.58-14.88-5.68-58-10.46-76.94-9.65-80.65h68s24.57,44,27.8,59,7.72,76.82,7.72,76.82Z"/><polygon class="cls-12" points="186.07 355.31 200.9 365.13 200.9 348.1 186.07 338.28 186.07 355.31"/><rect class="cls-12" x="200.9" y="348.1" width="93.32" height="17.03" transform="translate(495.12 713.23) rotate(180)"/><polygon class="cls-15" points="186.07 338.28 279.39 338.28 294.22 348.1 200.9 348.1 186.07 338.28"/><path class="cls-12" d="M215.91,348.1h78.31l-14.83-9.82H205.44C208,342.09,212.14,345.34,215.91,348.1Z"/><path class="cls-14" d="M294.79,428.13l1.89,11.8a8,8,0,0,0,7.35,4.22c2.75-.12,7.59-1.72,6.52-2.57a10,10,0,0,1-3.33-4l-.84-14.12Z"/><path class="cls-2" d="M320,446.79a4.8,4.8,0,0,1,4.48,1.39c.79,1,1.45,3.49-3.31,5.2s-9.3.43-11.94,0c-4.48-.74-6.37-2.77-9.23-2.51s-5.18-1-5.21-3.14,1.77-4,2.55-4.05S320,446.79,320,446.79Z"/><path class="cls-12" d="M309.65,439c-1.7-1.24-4.24.66-5.91,1.09-2.54.66-5.52-.34-6.13-1.53s-1.49-1-1.38.45-1.09,2-1,4.6,3.19,5.12,6.63,5.56,7,3.34,12.37,3.47c6.59.16,9.66-1.17,10.22-3.13s-3-4.08-7.71-6.46A54,54,0,0,1,309.65,439Z"/><path class="cls-14" d="M264.87,434.25l1.9,11.8a8,8,0,0,0,7.34,4.21c2.72-.11,8.18-1,7.08-1.79-3.84-2.71-3.89-4.74-3.89-4.74l-.84-14.12Z"/><path class="cls-14" d="M233.36,181.79s0,8.23.81,12a16.83,16.83,0,0,0,3.4,7.49c.93.91,10.62,8,10.62,8s-10.1,10.33-17.33,10.4-22.26-8.17-22.26-8.17,7.82-6.31,9-9.47,1.71-12.28,1.71-12.28Z"/><path class="cls-2" d="M266.16,292.13c-1.93-6.82-3.59-13.4-3.59-16.39,0-7.51-3.66-63.26-3.66-63.26l-14.51-6.89-6.83-4.28s5.55,12.59-2.8,14c-13.29,2.21-17.33-14.78-17.33-14.78l-3.38,1.74c0-.09-.06-.15-.06-.16l-22.69,11.18s8,13.1,8.63,20.45-5.76,27.48-5.12,42.5,2.48,40.21,2.48,40.21c4.11,0,65.75-5.89,65.75-5.89S264.08,292.41,266.16,292.13Z"/><path class="cls-9" d="M308.08,430.07l-10.93,1.75-3.82.61s-7.06-39.55-12-53.65S271,351.37,271,351.37s-14.74-9.54-23.81-12.75a23.42,23.42,0,0,0-2.4-.73c-34.73-8.36-27.61-30.09-27.14-44,0,0,35.13,2.61,44.41,9.11,27.26,19.08,36,33.48,38.33,41.1,3.08,10.06,3.29,28.3,4.52,42.79C306.94,411.06,308.08,430.07,308.08,430.07Z"/><path class="cls-12" d="M297.15,431.82l-3.82.61s-7.06-39.55-12-53.65S271,351.37,271,351.37s-14.74-9.54-23.81-12.75a118,118,0,0,0-13.68-20.42s23.48,10.17,34.44,15.65,17.22,10.18,19.57,27.4C289.62,376.9,296.28,406.13,297.15,431.82Z"/><path class="cls-9" d="M277,435.91l-11.48,2.54-1.83.41s-14.22-71.29-29.3-86.88c-5-5.21-19.63-10-27.4-14.09-12.27-6.55-10.56-15.25-9.79-27.26.07-1.17.14-2.37.18-3.61h38.37s25.65,28.19,29,35.85c2.45,5.56,6.38,13.24,8.4,28C277,398.87,277,435.91,277,435.91Z"/><path class="cls-12" d="M265.56,438.45l-1.83.41s-14.22-71.29-29.3-86.88c-5-5.21-19.63-10-27.4-14.09-12.27-6.55-10.56-15.25-9.79-27.26,0,0,4,11.19,4.72,15.07,2.76,15.44,22.95,1.79,38.19,17.49s21.5,43.89,22.28,65.81A290.43,290.43,0,0,0,265.56,438.45Z"/><path class="cls-2" d="M289.1,453.67a4.79,4.79,0,0,1,4.48,1.38c.8,1-.4,4.32-4.35,5.29a22.87,22.87,0,0,1-10.27.55c-4.49-.74-7-3.4-9.86-3.14s-5.18-1-5.2-3.14,1.77-4,2.55-4.05S289.1,453.67,289.1,453.67Z"/><path class="cls-12" d="M279.16,446c-1.47-1.24-4.6.54-6.27,1-2.55.66-5.53-.34-6.13-1.53s-1.49-1-1.39.45-1.09,2-.94,4.6,3.18,5.12,6.63,5.56,7.05,3.33,12.37,3.47c6.59.16,9.49-1.29,10.05-3.25s-2.19-3.93-7.49-6.37C281.64,447.88,280.09,446.77,279.16,446Z"/><rect class="cls-7" x="147.87" y="310.54" width="276.27" height="6.71" transform="translate(572.01 627.8) rotate(180)"/><polygon class="cls-7" points="117.81 293.9 394.07 293.9 424.14 310.54 147.87 310.54 117.81 293.9"/><polygon class="cls-7" points="147.87 317.26 117.81 300.62 117.81 293.9 147.87 310.54 147.87 317.26"/><polygon class="cls-7" points="159.78 460.29 163.85 460.29 199.87 317.26 191.47 317.26 159.78 460.29"/><polygon class="cls-7" points="417.27 455.84 413.21 455.84 372.14 317.26 380.54 317.26 417.27 455.84"/><polygon class="cls-9" points="140.98 444.68 145.05 444.68 178.19 317.26 169.8 317.26 140.98 444.68"/><polygon class="cls-9" points="386.57 434.93 382.51 434.93 350.46 317.26 358.86 317.26 386.57 434.93"/><polygon class="cls-14" points="322.09 286.96 334.05 293.37 339.03 302.1 334.05 302.1 327.61 298.19 325.54 302.1 322.09 302.23 317.68 298.73 305.81 289.06 322.09 286.96"/><path class="cls-14" d="M285.07,262.81c-1-1.78-4.77-14.39-8.38-24.83-4.91,2-9.84,4-14.85,5.66.19,4.65.65,9.39.92,14.12,4.14,9.08,8.69,17.92,12.27,20.61,6.49,4.86,39.69,17.62,39.69,17.62l4.58-9.16S286.54,265.45,285.07,262.81Z"/><path class="cls-2" d="M260,252c5.93,0,21.08-3,21.08-3s-7.35-19.52-9.18-23.07c-4.11-8-13-13.43-13-13.43s-5.6,7.77-7.28,10.48C244.9,233.84,256.52,247.09,260,252Z"/><path class="cls-13" d="M260.84,226.64l1.11,24c.37,8.12.37,23.64,1.48,27.7"/><polygon class="cls-16" points="260.64 299.19 332.27 299.19 297.52 288.11 225.89 288.11 260.64 299.19"/><polygon class="cls-9" points="225.89 288.11 260.64 299.19 260.64 303.37 225.89 292.28 225.89 288.11"/><polygon class="cls-14" points="245.38 283.49 255.86 283.79 267.62 281.31 279.88 288.11 285.21 292.42 282.41 293.65 279.08 291.43 279.88 293.9 275.25 293.65 273.38 292.42 273.38 293.9 269.83 294.85 266.24 292.42 258.59 291.12 250.31 290.34 245.38 283.49"/><path class="cls-14" d="M212.05,265.79c-2.17-3.14-3-9.85-3.9-22.44-6.7-2-16.22-3.84-22.78-6.14.52,22.18,7,41.92,13.81,46.75,9.34,6.67,54.75,6.44,54.75,6.44l1.93-6.61C239.33,281.51,215.86,271.32,212.05,265.79Z"/><path class="cls-2" d="M209.12,253.5c-.73-7.1-1.08-18.64-.7-22.58.93-9.9-12.17-20.83-17.11-17.65-7.5,4.84-6.69,25.37-4.24,43.74C193.68,255.12,202.47,255,209.12,253.5Z"/><rect class="cls-9" x="260.64" y="299.19" width="71.63" height="4.18" transform="translate(592.91 602.56) rotate(180)"/><polygon class="cls-12" points="263.72 290.55 269.58 292.37 282.03 207.94 278.56 209.76 263.72 290.55"/><polygon class="cls-9" points="269.58 292.37 377.01 288.74 392.41 206.13 282.03 207.94 269.58 292.37"/><polygon class="cls-9" points="319.93 303.77 336.83 303.77 325.45 301.72 308.55 301.72 319.93 303.77"/><rect class="cls-9" x="319.93" y="303.77" width="16.9" height="3.75"/><polygon class="cls-9" points="319.93 307.52 308.55 305.47 308.55 301.72 319.93 303.77 319.93 307.52"/><polygon class="cls-9" points="316.07 303.06 320.11 304.06 334.52 303.77 336.83 264.85 318.12 264.85 316.07 303.06"/><polygon class="cls-7" points="320.11 304.06 336.83 303.77 336.83 264.85 319.93 264.85 320.11 304.06"/><path class="cls-17" d="M187.07,257l22.05-3.51s.34-20,.34-24.86"/><path class="cls-14" d="M209.58,164.8c-2.82,5.13-1.91,10.48-1.25,13.85s1.41,5.45,1.15,9.85,1,10.77,6.32,14.23,15.49-1.12,18.38-6.89c1.75-3.5,4.72-11.55,5.22-14.49s2.17-12.82-1.76-16.84-10.75-4-17.67-2.67S210.76,162.63,209.58,164.8Z"/><path class="cls-12" d="M224.5,168.81s2.8,4.85,6.13,6.13c2.84,1.1,2.8,7.85,2.8,7.85l4.22.92c.75,2.41-1.82,8.12-1.82,8.12a11.47,11.47,0,0,0,4.08-6c1.06-3.92,3.85-7.33,2.57-15.68-1.21-7.84-7.77-8-7.77-8s-.68-4.35-9-5.56-17.49,4.22-18.7,9.05a22.09,22.09,0,0,0,.2,9.88S223.9,172.58,224.5,168.81Z"/><path class="cls-12" d="M221.77,176.2a6.87,6.87,0,0,1,5.54,1.31c.85.65.56,1.42-.34.84a8.37,8.37,0,0,0-5.17-1.07C220.78,177.42,220.75,176.34,221.77,176.2Z"/><path class="cls-12" d="M211.46,178.82c-.13-.28.27-.72.69-.94a3.76,3.76,0,0,1,2.49-.52c.47.11.31.77-.07.82C212.17,178.54,211.68,179.29,211.46,178.82Z"/><path class="cls-12" d="M221,181.8a1.53,1.53,0,0,1,1.21-1.73,1.5,1.5,0,0,1,1.72,1.21,1.54,1.54,0,0,1-1.21,1.73A1.5,1.5,0,0,1,221,181.8Z"/><path class="cls-12" d="M213.35,180.59c.72-.23,1.73.38,1.55,1.23v.08a1.17,1.17,0,0,1-2.07.64l0,0A1.2,1.2,0,0,1,213.35,180.59Z"/><path class="cls-12" d="M218.89,191.43c.51-.29-1.9-1-2.14-1.08-1.56-.83.07-2.27.63-3.11a6.22,6.22,0,0,0,.7-3.6c0-.5-.34-2-.55-2a11.11,11.11,0,0,1,.1,2.74,7,7,0,0,1-1.73,3.19,3.11,3.11,0,0,0-1.07,2.33,1.55,1.55,0,0,0,.95,1.15A4.16,4.16,0,0,0,218.89,191.43Z"/><path class="cls-12" d="M217,194.16c1.61,1.07,3.95.7,6.25-1.46,0,0-1,2.56-2.87,3.09S217,194.16,217,194.16Z"/><path class="cls-14" d="M236.22,178.71c1.73-2.53,5.38-2.56,5.66.72.23,2.74-1.06,3.44-2.83,5.95a2.45,2.45,0,0,1-3,.94S235.15,180.28,236.22,178.71Z"/><path class="cls-18" d="M238.18,179c.93-.94,2-.22,2.37.74s0,.44-.87-.05-1.5,1.1-1.31,2.06c.25,1.32-.05,3-1.21,3.24s-.58-.26-.57-1.68-.07,0,.15-1.43A4.54,4.54,0,0,1,238.18,179Z"/><path class="cls-9" d="M150.32,251.53,161,260.25a5.12,5.12,0,0,0,6.38-.09l37.41-33.57a3.42,3.42,0,0,0-.17-5.37l-10.43-8.72c-3.49-1.9-5.6-2-7.35-.43l-37.31,33.24C147.73,246.86,147.51,248.37,150.32,251.53Z"/><path class="cls-9" d="M151.28,252.43l10.72,8.8a5.13,5.13,0,0,0,6.41-.08L206,227.42a3.42,3.42,0,0,0-.18-5.38l-10.53-8.79a5.29,5.29,0,0,0-6.61,0L151,246.8A3.56,3.56,0,0,0,151.28,252.43Z"/><path class="cls-19" d="M170.78,244.27l-.92-.37,2.39-1.42.64-1.63-.72-.44,1.93-2,.81-2.27s-5.22-.1-8.37-.22a31.78,31.78,0,0,1-6.12-.91,33.11,33.11,0,0,0,3.4-2.89,12.77,12.77,0,0,1,2.76-1.84L162.82,229s-9.14,3.83-10.08,3.87-6.08,2.47-13.38-1.24q-3,4.34-6.08,8.61c6.5,2,12,3.66,14.34,4.36,7.52,2.26,14.28,3.75,15.33,3.94s7.57-2.77,7.5-2.81A11.56,11.56,0,0,1,170.78,244.27Z"/><path class="cls-13" d="M94.28,132.86c-11.83,7.73-6.67,45.89-4.7,55.27,2.34,11.13,5.32,21.43,12,29.72C116.7,236.62,140.37,244,140.37,244l6.56-10.8s-23.1-16.67-25.45-34.33c-1.39-10.41-5.5-39.92-6.87-47.8C112.53,139.12,100.34,128.9,94.28,132.86Z"/><path class="cls-20" d="M215.8,202.73a218.1,218.1,0,0,0,10,33.23c3.55,7.88,10.84,9.07,13.21-2,3.17-14.83-.6-32.71-.6-32.71"/><rect class="cls-13" x="225.16" y="243.67" width="15.18" height="22.71"/><rect class="cls-2" x="227.7" y="245" width="10.11" height="11.51" transform="translate(-18.01 483.51) rotate(-90)"/><path class="cls-13" d="M232.71,244.7h0a.76.76,0,0,1-.76-.76v-2.12a.76.76,0,0,1,.76-.76h0a.76.76,0,0,1,.76.76v2.12A.76.76,0,0,1,232.71,244.7Z"/></g></svg>