<svg width="19" height="21" viewBox="0 0 19 21" fill="none" xmlns="http://www.w3.org/2000/svg">
<path fill-rule="evenodd" clip-rule="evenodd" d="M16.6421 0.878859L17.3491 1.58586C17.9115 2.14844 18.2274 2.91137 18.2274 3.70686C18.2274 4.50235 17.9115 5.26528 17.3491 5.82786L14.3741 8.80286L17.5561 11.9849C17.7419 12.1706 17.8893 12.3911 17.9898 12.6338C18.0904 12.8765 18.1421 13.1366 18.1421 13.3994C18.1421 13.6621 18.0904 13.9222 17.9898 14.1649C17.8893 14.4076 17.7419 14.6281 17.5561 14.8139L14.7281 17.6419C14.5423 17.8277 14.3218 17.9751 14.0791 18.0756C13.8364 18.1762 13.5763 18.2279 13.3136 18.2279C13.0509 18.2279 12.7907 18.1762 12.548 18.0756C12.3053 17.9751 12.0848 17.8277 11.8991 17.6419L8.71707 14.4599L6.35407 16.8239C6.12179 17.0562 5.81966 17.2059 5.49407 17.2499L1.57407 17.7799C1.42121 17.8007 1.2656 17.786 1.1194 17.7367C0.973195 17.6874 0.840377 17.605 0.731334 17.4958C0.622291 17.3867 0.539979 17.2538 0.490838 17.1076C0.441697 16.9613 0.42706 16.8057 0.448073 16.6529L0.978073 12.7339C1.02206 12.4083 1.17172 12.1061 1.40407 11.8739L3.76807 9.51086L0.586073 6.32886C0.40027 6.14313 0.252878 5.92262 0.152318 5.67991C0.0517582 5.43721 0 5.17707 0 4.91436C0 4.65165 0.0517582 4.39151 0.152318 4.14881C0.252878 3.9061 0.40027 3.68559 0.586073 3.49986L3.41407 0.67186C3.5998 0.486056 3.82031 0.338665 4.06302 0.238105C4.30572 0.137545 4.56586 0.0857866 4.82857 0.0857866C5.09129 0.0857866 5.35142 0.137545 5.59413 0.238105C5.83683 0.338665 6.05734 0.486056 6.24307 0.67186L9.42507 3.85386L12.3991 0.878859C12.6777 0.60023 13.0084 0.379206 13.3724 0.22841C13.7364 0.0776141 14.1266 0 14.5206 0C14.9146 0 15.3047 0.0776141 15.6687 0.22841C16.0328 0.379206 16.3635 0.60023 16.6421 0.878859ZM12.9601 10.2179L10.1321 13.0459L10.4851 13.3999L11.1921 12.6929C11.3716 12.5116 11.6136 12.4058 11.8686 12.3972C12.1236 12.3885 12.3722 12.4777 12.5637 12.6463C12.7551 12.815 12.8748 13.0504 12.8983 13.3045C12.9218 13.5585 12.8473 13.8119 12.6901 14.0129L12.6071 14.1069L11.9001 14.8139L13.3141 16.2279L16.1421 13.3999L12.9601 10.2179ZM11.6921 4.41386L2.93707 13.1689L2.60607 15.6219L5.05907 15.2899L13.8141 6.53586L11.6921 4.41386ZM4.82807 2.08686L2.00107 4.91386L3.41507 6.32886L4.12207 5.62186C4.30161 5.44061 4.54364 5.33483 4.79862 5.32618C5.0536 5.31753 5.30224 5.40666 5.49365 5.57533C5.68507 5.74399 5.80478 5.97944 5.82828 6.23348C5.85178 6.48752 5.77729 6.74094 5.62007 6.94186L5.53607 7.03586L4.82907 7.74286L5.18307 8.09586L8.01107 5.26786L4.82807 2.08686ZM13.8141 2.29386L13.1071 3.00086L15.2271 5.12186L15.9351 4.41486C16.1225 4.22733 16.2279 3.97302 16.2279 3.70786C16.2279 3.4427 16.1225 3.18839 15.9351 3.00086L15.2281 2.29386C15.0405 2.10639 14.7862 2.00107 14.5211 2.00107C14.2559 2.00107 14.0016 2.10639 13.8141 2.29386Z" fill="black"/>
</svg>
