<?xml version="1.0" encoding="UTF-8"?>
<svg version="1.1" xmlns="http://www.w3.org/2000/svg" width="860" height="989">
<path d="M0 0 C283.8 0 567.6 0 860 0 C860 326.37 860 652.74 860 989 C576.2 989 292.4 989 0 989 C0 662.63 0 336.26 0 0 Z " fill="#3949AA" transform="translate(0,0)"/>
<path d="M0 0 C283.8 0 567.6 0 860 0 C860 326.37 860 652.74 860 989 C576.2 989 292.4 989 0 989 C0 662.63 0 336.26 0 0 Z M397.75 50.4375 C396.80745361 50.95973145 395.86490723 51.48196289 394.89379883 52.02001953 C391.92352373 53.67009049 388.9607476 55.33290139 386 57 C384.59016846 57.79253174 384.59016846 57.79253174 383.15185547 58.60107422 C378.39685024 61.27705476 373.64790696 63.96356517 368.90234375 66.65625 C352.97232655 75.69094772 336.96110563 84.58117254 320.94628906 93.46435547 C312.84190588 97.96458667 304.76646121 102.51377217 296.70263672 107.08618164 C288.18549678 111.90952138 279.62749911 116.65787132 271.06665039 121.40307617 C262.70894456 126.03985685 254.38139023 130.72769058 246.06591797 135.43969727 C239.72309365 139.03197083 233.36255903 142.59017961 226.98608398 146.12231445 C220.47943697 149.7281205 213.98896405 153.36248327 207.5 157 C200.30003028 161.03608497 193.09531823 165.06293324 185.875 169.0625 C179.24969479 172.73385706 172.65255741 176.45328352 166.0625 180.1875 C157.6057595 184.97832729 149.12451467 189.72298728 140.625 194.4375 C125.81276829 202.65361855 111.01414777 210.89433947 96.2734375 219.23828125 C95.33943115 219.76695801 94.4054248 220.29563477 93.44311523 220.84033203 C91.57189402 221.90084742 89.70160499 222.96300935 87.83227539 224.02685547 C83.15620537 226.68106962 78.46589271 229.30117153 73.73175049 231.85072327 C71.30505404 233.15800485 68.8835475 234.47477149 66.46185303 235.79129028 C64.74960724 236.71644252 63.02946932 237.62694223 61.30908203 238.53686523 C46.73571887 246.46587467 36.99502424 256.14399997 32 272 C31.67 272.99 31.34 273.98 31 275 C30.90406197 277.25597726 30.87083395 279.5147586 30.86857224 281.77277374 C30.8665196 282.46854967 30.86446697 283.1643256 30.86235213 283.88118565 C30.85666407 286.23009345 30.85814161 288.57894294 30.85955811 290.92785645 C30.85697549 292.62202443 30.85396262 294.31619181 30.8505547 296.01035833 C30.84246898 300.67979499 30.84069425 305.34921629 30.83995724 310.01865911 C30.83810935 315.04954283 30.83056324 320.08041852 30.82382202 325.11129761 C30.81022587 336.11977084 30.80421166 347.12824043 30.79981136 358.13672066 C30.79705047 365.00957949 30.79281333 371.88243692 30.78830719 378.7552948 C30.77611164 397.78047853 30.76581368 416.80566114 30.7624321 435.83084869 C30.76221253 437.04913198 30.76199297 438.26741527 30.76176675 439.52261624 C30.76154847 440.74384046 30.76133019 441.96506468 30.7611053 443.22329569 C30.76066183 445.69801744 30.76021527 448.17273919 30.75976562 450.64746094 C30.7595442 451.8750123 30.75932277 453.10256367 30.75909463 454.36731356 C30.75514803 474.25074395 30.73769949 494.13413765 30.7144061 514.01755387 C30.69068953 534.42685739 30.67823007 554.83614251 30.67706418 575.24546003 C30.67614746 586.70630864 30.67039617 598.16710949 30.65224457 609.62794495 C30.63683931 619.38930699 30.63172556 629.15060653 30.63998267 638.91197842 C30.64388797 643.89151434 30.64296542 648.87092439 30.62892532 653.85044479 C30.61617907 658.41288352 30.61739035 662.97510192 30.62951604 667.53754038 C30.6314718 669.18434018 30.62840018 670.83115563 30.61967167 672.47793347 C30.53874669 688.7838236 33.29565256 701.12736908 45.02734375 713.0625 C51.30535946 718.26807156 58.79261844 721.97502689 65.92675781 725.86474609 C69.11355878 727.60975604 72.27446547 729.39989441 75.4375 731.1875 C82.45184983 735.13656918 89.4760631 739.06801716 96.5 743 C107.82881787 749.34239163 119.15439631 755.69006389 130.453125 762.0859375 C140.00015859 767.48966355 149.55396506 772.87823866 159.15185547 778.19116211 C165.2877143 781.59260668 171.39548919 785.04266674 177.5 788.5 C185.19984234 792.86068013 192.91578667 797.18980995 200.65551758 801.47924805 C209.87624019 806.59058917 219.05865353 811.76932358 228.234375 816.9609375 C245.53527781 826.74964577 262.85868382 836.49766426 280.25 846.125 C286.47033479 849.56899949 292.64786324 853.08238874 298.8125 856.625 C307.32251207 861.51322001 315.89948591 866.27369813 324.5 871 C333.79365273 876.10775993 343.04881386 881.27344192 352.2434082 886.55810547 C368.39409397 895.83418737 384.68944199 904.86139142 400.98486328 913.88037109 C402.45432288 914.69681666 403.92108529 915.51812225 405.38623047 916.34228516 C406.18432129 916.79007324 406.98241211 917.23786133 407.8046875 917.69921875 C408.53155762 918.10873779 409.25842773 918.51825684 410.00732422 918.94018555 C419.86817076 924.18472547 432.58083297 924.48298404 443.1875 921.5625 C451.62356513 918.6872494 459.26019463 914.35809626 467 910 C467.85883789 909.51853516 468.71767578 909.03707031 469.60253906 908.54101562 C474.37849247 905.86044099 479.14510239 903.16380727 483.90625 900.45703125 C490.08888721 896.94389723 496.29265251 893.46923681 502.5 890 C510.51135803 885.51989915 518.51222113 881.02200704 526.5 876.5 C535.5408259 871.3818465 544.60079192 866.29870188 553.66845703 861.22827148 C560.58229053 857.3600593 567.48236044 853.46832909 574.375 849.5625 C582.72621302 844.83168819 591.10559766 840.1537159 599.5 835.5 C611.70473253 828.73314809 623.86121947 821.88430141 636 815 C649.23635572 807.49322763 662.4999342 800.03951579 675.80712891 792.65893555 C686.5184265 786.71728614 697.20599186 780.73384312 707.88964844 774.74267578 C711.05265439 772.97049866 714.21747686 771.20160601 717.3828125 769.43359375 C727.03144916 764.04214294 736.66724878 758.63282121 746.25 753.125 C753.93229164 748.70963354 761.67563285 744.41228658 769.44387817 740.15078735 C779.44595781 734.66010612 789.42182147 729.12705393 799.3125 723.4375 C800.27776611 722.8904541 801.24303223 722.3434082 802.23754883 721.77978516 C814.00093892 714.95374057 824.94174433 705.40199194 828.5994699 691.7650165 C830.26394173 683.35807725 830.27992401 675.0274631 830.25396729 666.49647522 C830.25627488 664.83736279 830.2594534 663.17825138 830.26342177 661.51914209 C830.27173745 656.98370154 830.26765921 652.44834563 830.26144934 647.91290486 C830.25691257 643.01234001 830.2639147 638.11178941 830.26940918 633.21122742 C830.27829195 623.62007474 830.27638608 614.02895341 830.2705839 604.43779952 C830.26606276 596.64067902 830.26545646 588.84356728 830.26763153 581.04644585 C830.267938 579.93570569 830.26824446 578.82496554 830.26856022 577.68056659 C830.26919968 575.42393824 830.26984811 573.16730989 830.2705054 570.91068154 C830.27620549 549.76101166 830.26965596 528.61135912 830.25890467 507.46169209 C830.24997068 489.32577106 830.25152056 471.18987564 830.26074219 453.05395508 C830.2714526 431.98027784 830.2756549 410.90661581 830.26951766 389.83293623 C830.26888058 387.58441413 830.26825184 385.33589202 830.26763153 383.08736992 C830.26732298 381.981131 830.26701443 380.87489208 830.26669653 379.73513078 C830.26497181 371.95051806 830.2678799 364.16591501 830.27259064 356.38130379 C830.27820809 346.88989534 830.27666489 337.39851996 830.26602915 327.90711529 C830.2607839 323.06717187 830.25869612 318.22728352 830.26532745 313.38734055 C830.27131285 308.95164934 830.26796925 304.51606396 830.25737235 300.08038228 C830.25514926 298.48091298 830.25624992 296.88143464 830.26112393 295.28197122 C830.31055933 277.70239721 828.67654122 264.75456297 816.57421875 251.421875 C809.95980343 245.19890459 802.49611563 240.84453987 794.5625 236.5 C792.32151955 235.25928621 790.08063683 234.01839591 787.83984375 232.77734375 C786.13223877 231.83544189 786.13223877 231.83544189 784.39013672 230.87451172 C779.12152228 227.96133142 773.87433429 225.01022886 768.625 222.0625 C754.59453143 214.20029369 740.53185284 206.39620988 726.46728516 198.59521484 C716.04286262 192.81324769 705.63647416 186.9997796 695.23779297 181.17163086 C689.16512248 177.76910443 683.08759277 174.3757511 677 171 C668.94472915 166.53304483 660.90976354 162.03022038 652.87548828 157.52563477 C645.05313013 153.142732 637.21657786 148.78590444 629.375 144.4375 C621.10333558 139.85004209 612.85129116 135.2308118 604.625 130.5625 C595.37982208 125.31773293 586.08437925 120.16763452 576.77236938 115.04293823 C566.034843 109.13328524 555.33319859 103.16171668 544.64453125 97.1640625 C539.77033682 94.42941984 534.88790288 91.71004705 530 89 C522.96947146 85.10059345 515.95150394 81.17904882 508.9375 77.25 C507.35328247 76.36272217 507.35328247 76.36272217 505.73706055 75.45751953 C500.3619401 72.44628172 494.98843981 69.43219475 489.6171875 66.4140625 C484.43368267 63.50251596 479.24559685 60.59931263 474.05322266 57.70361328 C472.00492517 56.56072028 469.95773644 55.41583805 467.91162109 54.26904297 C464.94541263 52.60893301 461.97356454 50.9593895 459 49.3125 C458.12255127 48.81927246 457.24510254 48.32604492 456.34106445 47.81787109 C447.39944972 42.89510512 439.87403143 40.47960342 429.625 40.5625 C428.75617188 40.54251953 427.88734375 40.52253906 426.9921875 40.50195312 C416.05226217 40.51004479 407.09599116 45.17794138 397.75 50.4375 Z " fill="#F6F6F6" transform="translate(0,0)"/>
<path d="M0 0 C1.0043811 -0.00067474 2.00876221 -0.00134949 3.0435791 -0.00204468 C18.71656665 0.0146646 33.95604291 0.60989377 49.4375 3.25 C50.43410645 3.41097168 51.43071289 3.57194336 52.45751953 3.73779297 C92.64072344 10.37442874 132.93216268 25.92190889 166.4375 49.25 C167.015 49.64783691 167.5925 50.04567383 168.1875 50.45556641 C176.25200654 56.02381271 183.94906622 61.92160023 191.4375 68.25 C192.5140123 69.13969889 193.59085002 70.02900413 194.66796875 70.91796875 C207.78394114 81.84076011 219.9803416 93.7364295 230.4375 107.25 C231.28946592 108.30256639 232.14375585 109.35325467 233 110.40234375 C240.0076181 119.05386366 246.21594529 128.14934947 252.28344727 137.47924805 C253.32433713 139.0763655 254.38003774 140.66380662 255.4375 142.25 C255.4375 143.24 255.4375 144.23 255.4375 145.25 C254.80585937 145.60078613 254.17421875 145.95157227 253.5234375 146.31298828 C241.82979479 152.81483898 230.16799903 159.35838077 218.625 166.125 C209.94310449 171.21342185 201.23736216 176.25756373 192.5 181.25 C191.91217743 181.58592163 191.32435486 181.92184326 190.71871948 182.26794434 C181.39198033 187.5942192 172.02542258 192.84749918 162.640625 198.07080078 C153.97394335 202.91025574 145.40454854 207.90945402 136.87402344 212.98486328 C135.45331543 213.82380127 135.45331543 213.82380127 134.00390625 214.6796875 C133.16802979 215.17710449 132.33215332 215.67452148 131.47094727 216.18701172 C129.4375 217.25 129.4375 217.25 127.4375 217.25 C126.39297504 215.73041413 125.42925725 214.15518785 124.5 212.5625 C105.06633629 181.16965863 71.85745203 160.69019698 36.71484375 151.25 C-1.4144576 142.4671709 -40.8074266 149.42882603 -74.25 169.15234375 C-83.43558945 174.9691616 -91.67325841 181.79269757 -99.5625 189.25 C-100.37332031 189.99636719 -101.18414062 190.74273437 -102.01953125 191.51171875 C-109.22345146 198.37529627 -114.96236979 206.06879765 -120.5625 214.25 C-121.13871094 215.09175781 -121.71492187 215.93351563 -122.30859375 216.80078125 C-142.49807296 248.48020797 -147.94542192 288.87312289 -140.5625 325.25 C-132.20331238 362.81774436 -108.95555716 396.80399733 -76.53173828 417.54931641 C-45.89877851 436.27070708 -6.19339783 446.60786492 29.4375 438.25 C30.26427246 438.06163574 31.09104492 437.87327148 31.94287109 437.67919922 C58.20859146 431.60527982 83.62769023 420.60700097 102.70703125 400.921875 C105.4375 398.25 105.4375 398.25 107.4375 398.25 C107.685 397.67894531 107.9325 397.10789062 108.1875 396.51953125 C109.63315697 393.89476031 111.35424416 392.09143774 113.4375 389.9375 C119.27714158 383.60410011 123.81139533 376.49337892 128.4375 369.25 C132.19386093 369.84077541 135.0392136 370.90975166 138.3671875 372.734375 C139.3149707 373.2504834 140.26275391 373.7665918 141.23925781 374.29833984 C142.25342773 374.8598877 143.26759766 375.42143555 144.3125 376 C145.37823242 376.58346191 146.44396484 377.16692383 147.54199219 377.76806641 C155.57004717 382.17769295 163.53759614 386.69172577 171.49633789 391.22485352 C179.18305199 395.58490137 186.95206185 399.78123457 194.75 403.9375 C202.99909993 408.33460218 211.23617175 412.74547224 219.39013672 417.31738281 C223.54413772 419.6457768 227.71027199 421.94995519 231.89085388 424.23020935 C234.55418087 425.68297227 237.21543342 427.13951688 239.8767395 428.59597778 C241.19986754 429.31871821 242.52397348 430.03967148 243.84909058 430.75875854 C245.71321043 431.77065542 247.57369319 432.78896765 249.43359375 433.80859375 C251.06059204 434.69502563 251.06059204 434.69502563 252.72045898 435.59936523 C255.02237198 436.99780478 256.67792635 438.23987711 258.4375 440.25 C251.43762422 452.15530054 243.98861051 463.40284211 235.4375 474.25 C234.26380859 475.74466797 234.26380859 475.74466797 233.06640625 477.26953125 C228.26125683 483.25669604 223.15502931 488.91607973 217.91796875 494.5234375 C216.33051989 496.26838129 214.79381508 498.06175821 213.328125 499.91015625 C211.65170495 501.98489925 210.03817558 503.61023754 208 505.3125 C204.88265732 507.96801414 201.87285058 510.70484429 198.89624023 513.51489258 C162.1268642 548.08126878 114.87857533 569.91835772 66.22460938 581.57910156 C64.01405677 582.11121426 61.81034465 582.6717321 59.609375 583.2421875 C13.21032014 594.55049987 -40.6121373 589.72419341 -85.5625 575.25 C-86.80821777 574.85192139 -86.80821777 574.85192139 -88.07910156 574.44580078 C-100.98347866 570.26674099 -113.35098368 565.1448084 -125.5625 559.25 C-126.39861816 558.8482959 -127.23473633 558.4465918 -128.09619141 558.03271484 C-150.928148 546.92515827 -172.61635208 532.54237786 -191.30859375 515.3203125 C-193.31553483 513.47684843 -195.36162242 511.70220907 -197.4375 509.9375 C-205.80659769 502.61665293 -213.46408234 494.70708309 -220.37109375 485.99609375 C-222.59791838 483.20561654 -224.91835502 480.51569166 -227.25 477.8125 C-276.20455144 418.79464818 -297.83636637 339.66245352 -290.78637695 263.82543945 C-287.84272265 237.34903023 -281.73137599 210.89672174 -271.5625 186.25 C-271.2432959 185.45827393 -270.9240918 184.66654785 -270.59521484 183.85083008 C-259.67160448 156.85516389 -244.97453228 131.83856357 -226.5625 109.25 C-226.15483398 108.74082031 -225.74716797 108.23164063 -225.32714844 107.70703125 C-218.56298223 99.29724671 -211.10357653 91.58518638 -203.5 83.9375 C-202.59024414 83.018479 -201.68048828 82.09945801 -200.74316406 81.15258789 C-194.65782063 75.09514382 -188.31266687 69.55365617 -181.5625 64.25 C-180.87244873 63.70593506 -180.18239746 63.16187012 -179.47143555 62.60131836 C-154.10627565 42.84585587 -125.95166167 26.84882484 -95.5625 16.25 C-94.86866211 16.0015332 -94.17482422 15.75306641 -93.45996094 15.49707031 C-63.2045827 4.68080686 -32.0307505 0.01931141 0 0 Z " fill="#FDFDFD" transform="translate(427.5625,187.75)"/>
<path d="M0 0 C0.85980469 -0.01546875 1.71960938 -0.0309375 2.60546875 -0.046875 C14.23892637 0.0226823 23.78401463 5.44153546 33.75 10.9375 C35.44564087 11.86175781 35.44564087 11.86175781 37.17553711 12.8046875 C47.37471124 18.38304041 57.49228626 24.10403332 67.59619141 29.85253906 C72.63682908 32.71231904 77.69298612 35.54430709 82.75 38.375 C83.78390869 38.95378906 84.81781738 39.53257813 85.88305664 40.12890625 C94.71607257 45.0692334 103.56366317 49.98318304 112.41308594 54.89404297 C120.98272114 59.6515322 129.53671861 64.43641309 138.0859375 69.23046875 C145.71372958 73.50549076 153.35423655 77.75721365 161 82 C169.67700027 86.8150402 178.34450813 91.64640193 187 96.5 C200.98789295 104.34309622 215.00879312 112.12633465 229.03271484 119.90478516 C239.45713738 125.68675231 249.86352584 131.5002204 260.26220703 137.32836914 C266.33487816 140.73089593 272.41247196 144.12413149 278.5 147.5 C294.55728608 156.40800137 310.56770543 165.39861244 326.5402832 174.45751953 C333.82237072 178.57659218 341.14566619 182.61727602 348.47854614 186.64483643 C353.82562344 189.58464047 359.16330077 192.54141167 364.5 195.5 C365.42796387 196.01256348 366.35592773 196.52512695 367.31201172 197.05322266 C375.60285208 201.65746566 383.3699165 206.06078003 389.5 213.5 C386.26733025 216.1908148 383.07222803 218.43884808 379.38671875 220.4609375 C377.90461914 221.28078125 377.90461914 221.28078125 376.39257812 222.1171875 C375.33490234 222.69726562 374.27722656 223.27734375 373.1875 223.875 C364.56409964 228.65072842 355.99733889 233.50339248 347.5 238.5 C338.34984465 243.87343605 329.12330027 249.09273329 319.85107422 254.25219727 C312.72370782 258.22816165 305.66082535 262.30199627 298.625 266.4375 C289.74608562 271.64931077 280.80620587 276.73984583 271.8125 281.75 C271.22833313 282.07668671 270.64416626 282.40337341 270.04229736 282.73995972 C268.38032611 283.66853179 266.71560374 284.59217461 265.05078125 285.515625 C264.09856689 286.04446289 263.14635254 286.57330078 262.1652832 287.11816406 C259.5 288.5 259.5 288.5 256.71557617 289.56152344 C254.33618109 290.28667066 254.33618109 290.28667066 253.5 292.5 C253.20609375 291.90316406 252.9121875 291.30632812 252.609375 290.69140625 C242.00236412 270.17842256 226.41240096 252.08145777 210.5 235.5 C209.64664063 234.60539063 208.79328125 233.71078125 207.9140625 232.7890625 C202.99083523 227.74158974 197.84426434 223.16780514 192.33203125 218.7734375 C189.43744897 216.44978662 186.629544 214.04178741 183.8125 211.625 C145.4791928 179.68057733 96.4112791 159.53253342 47.5 151.5 C46.54416016 151.33628906 45.58832031 151.17257813 44.60351562 151.00390625 C29.20836309 148.46774089 13.87675472 148.21603079 -1.6875 148.1875 C-2.65594849 148.18382416 -3.62439697 148.18014832 -4.62219238 148.17636108 C-16.1127696 148.15358262 -27.14282483 148.64106967 -38.5 150.5 C-40.58828488 150.79997021 -42.67681853 151.09821489 -44.765625 151.39453125 C-115.1669082 162.00555498 -185.00765088 200.21931556 -228.5 257.5 C-229.42670476 258.6864937 -230.35381655 259.87266956 -231.28125 261.05859375 C-239.05920984 271.11009157 -245.927739 281.62894621 -252.5 292.5 C-252.89783691 293.14839844 -253.29567383 293.79679687 -253.70556641 294.46484375 C-291.29145102 356.11416641 -302.23723231 435.96277314 -285.9375 506.0625 C-279.90017235 530.06914974 -271.53029997 553.34387994 -260.5 575.5 C-260.10280762 576.29905762 -259.70561523 577.09811523 -259.29638672 577.92138672 C-258.36793831 579.78276485 -257.43457561 581.64169071 -256.5 583.5 C-257.06203125 583.80550781 -257.6240625 584.11101563 -258.203125 584.42578125 C-260.65554404 585.76107076 -263.10642351 587.09915145 -265.55664062 588.43847656 C-266.92991484 589.18860172 -268.30365851 589.93786775 -269.67773438 590.68652344 C-279.57902927 596.08384584 -289.41865156 601.56697901 -299.16235352 607.24414062 C-305.22685891 610.77429052 -311.3244029 614.24225134 -317.4375 617.6875 C-326.11660902 622.58244696 -334.78412808 627.49722423 -343.4375 632.4375 C-344.0241745 632.77226349 -344.610849 633.10702698 -345.21530151 633.45193481 C-351.56020243 637.07417899 -357.89087558 640.7188394 -364.19140625 644.41796875 C-365.25560791 645.0426001 -366.31980957 645.66723145 -367.41625977 646.31079102 C-369.39160328 647.47291418 -371.36494257 648.63845493 -373.33569336 649.80834961 C-379.91339406 653.68170779 -386.63573666 657.16220703 -393.5 660.5 C-396.87257446 653.21088746 -398.6225119 647.62244324 -398.63422108 639.48392391 C-398.63657331 638.78613989 -398.63892554 638.08835587 -398.64134905 637.36942688 C-398.64801851 635.02572346 -398.64758145 632.68207574 -398.64717102 630.33836365 C-398.65047092 628.64318208 -398.65419676 626.94800129 -398.6583125 625.25282151 C-398.66832621 620.58983602 -398.67204828 615.9268634 -398.67470181 611.26386869 C-398.67860671 606.236408 -398.6881849 601.20895749 -398.69691467 596.1815033 C-398.71667351 584.03807906 -398.72674442 571.89465399 -398.73564246 559.75121769 C-398.74002619 554.03210766 -398.74539277 548.31299854 -398.75063133 542.59388924 C-398.76764279 523.58149502 -398.78213699 504.56910137 -398.78938007 485.55670071 C-398.79128995 480.62333106 -398.79321029 475.68996142 -398.79516602 470.7565918 C-398.79564976 469.53043374 -398.7961335 468.30427569 -398.7966319 467.04096133 C-398.80493232 447.17772135 -398.83026985 427.3145416 -398.86274669 407.45132791 C-398.89582057 387.05664666 -398.91382912 366.66199601 -398.91702431 346.26728779 C-398.91918907 334.81703873 -398.92793277 323.3668775 -398.95348549 311.91665459 C-398.9751969 302.16523933 -398.98324068 292.41393324 -398.97351871 282.66249656 C-398.96897537 277.68886039 -398.97086238 272.71544943 -398.99028015 267.74184418 C-399.00792191 263.18369572 -399.00690584 258.62593661 -398.99138286 254.06778396 C-398.98900834 252.42371528 -398.99332221 250.77961956 -399.00521151 249.13559216 C-399.11070721 233.57718327 -395.95546587 221.17814094 -385.01953125 209.65234375 C-380.23187225 204.93687701 -374.83750828 201.94593359 -368.9375 198.8125 C-366.69365306 197.58919691 -364.4501711 196.36522417 -362.20703125 195.140625 C-361.08119629 194.53154297 -359.95536133 193.92246094 -358.79541016 193.29492188 C-353.87011295 190.61224406 -348.99857052 187.83767415 -344.125 185.0625 C-334.63007197 179.68091602 -325.09290794 174.37733739 -315.54736328 169.08618164 C-308.34572138 165.09080648 -301.16407687 161.06231174 -294 157 C-284.54633122 151.63940011 -275.05202183 146.35462749 -265.546875 141.0859375 C-258.34541527 137.0906071 -251.16396335 133.06214427 -244 129 C-231.21248291 121.7506399 -218.35675782 114.62555557 -205.5 107.5 C-196.32444588 102.4119201 -187.15351101 97.31667355 -178.01318359 92.16552734 C-171.82843827 88.68088912 -165.63287747 85.21569123 -159.4375 81.75 C-151.32103441 77.20900005 -143.21669097 72.64748556 -135.125 68.0625 C-125.67684049 62.71129386 -116.19209667 57.42787644 -106.69677734 52.16088867 C-92.07963286 44.05171973 -77.48752033 35.89788006 -62.94335938 27.65844727 C-59.15959294 25.51582069 -55.37241986 23.37925527 -51.58496094 21.24316406 C-48.80664505 19.67327047 -46.03177726 18.09742166 -43.25753784 16.52033997 C-40.84703274 15.15275796 -38.43237311 13.79263071 -36.01678467 12.43405151 C-34.30695475 11.46962522 -32.60187415 10.49679383 -30.89697266 9.52368164 C-20.7100036 3.81018779 -11.81122694 -0.21249584 0 0 Z " fill="#5D6CBF" transform="translate(429.5,40.5)"/>
<path d="M0 0 C3.42511742 1.43868887 4.66892963 5.10166103 6.35498047 8.24291992 C14.13108055 22.07791642 23.64475186 34.72707519 33.91748047 46.80541992 C34.82689294 47.90000839 35.73571333 48.99508896 36.64404297 50.09057617 C46.19316876 61.52044511 56.37080741 72.37366892 68.11328125 81.58569336 C70.79014625 83.70462567 73.40825021 85.88081308 76.02685547 88.07104492 C81.6240593 92.65450424 87.44505161 96.75987677 93.47998047 100.74291992 C94.52645752 101.43530762 95.57293457 102.12769531 96.65112305 102.84106445 C116.6954385 115.96916473 138.1964219 127.09557758 160.91748047 134.80541992 C161.72733398 135.08482422 162.5371875 135.36422852 163.37158203 135.65209961 C235.38235408 160.30080359 315.21006969 155.35768906 383.91748047 122.80541992 C384.78163574 122.40210449 385.64579102 121.99878906 386.53613281 121.58325195 C414.65133506 108.38480034 441.60749893 89.99775563 463.14013672 67.48120117 C464.91748047 65.80541992 464.91748047 65.80541992 466.91748047 65.80541992 C467.28679687 64.94110352 467.28679687 64.94110352 467.66357422 64.05932617 C469.11910146 61.44300462 470.80356778 59.79650156 472.97998047 57.74291992 C478.07302082 52.75564558 482.51203823 47.40152222 486.91748047 41.80541992 C487.72185547 40.79479492 488.52623047 39.78416992 489.35498047 38.74291992 C498.07362862 27.68266269 505.86234935 15.99416271 512.91748047 3.80541992 C516.92063715 4.40854828 519.91534274 5.67930636 523.46044922 7.61401367 C525.05711426 8.47953857 525.05711426 8.47953857 526.68603516 9.36254883 C527.81428711 9.98307129 528.94253906 10.60359375 530.10498047 11.24291992 C531.28471961 11.88583811 532.46473523 12.52824919 533.64501953 13.17016602 C541.61471148 17.51189756 549.55246765 21.91150829 557.47607422 26.33666992 C562.37581477 29.06814079 567.30239911 31.7495953 572.22998047 34.43041992 C590.61066647 44.44017446 608.97046692 54.48470094 627.11914062 64.91064453 C634.94748032 69.40719136 642.79597592 73.85441771 650.91748047 77.80541992 C647.54685123 87.77175774 638.27762204 93.29431323 629.41748047 97.99291992 C627.37313889 99.11258243 625.3288706 100.23237875 623.28466797 101.35229492 C622.23504883 101.92012695 621.18542969 102.48795898 620.10400391 103.07299805 C614.88681644 105.90943402 609.71810869 108.83157818 604.54248047 111.74291992 C602.4438716 112.91802341 600.34491136 114.0924996 598.24560547 115.26635742 C597.20210937 115.84998047 596.15861328 116.43360352 595.08349609 117.03491211 C592.97281901 118.21525065 590.86214193 119.39558919 588.75146484 120.57592773 C577.62777079 126.79736378 566.50935642 133.02739526 555.41748047 139.30541992 C544.32275343 145.58505831 533.20134654 151.8164269 522.07470703 158.03930664 C516.85454336 160.95940129 511.63609368 163.88255558 506.41748047 166.80541992 C504.33415546 167.97210146 502.25082213 169.13876812 500.16748047 170.30541992 C499.13623047 170.88291992 498.10498047 171.46041992 497.04248047 172.05541992 C487.66748047 177.30541992 487.66748047 177.30541992 484.54199219 179.05566406 C482.46025315 180.22145744 480.37854738 181.38731024 478.296875 182.55322266 C473.06442124 185.48374052 467.83137961 188.41319908 462.59716797 191.34057617 C452.52543925 196.97476105 442.46086704 202.62084241 432.41748047 208.30541992 C419.22103873 215.77463316 405.98616326 223.17478393 392.75146484 230.57592773 C389.59823956 232.33951359 386.44526043 234.10353809 383.29248047 235.86791992 C382.25478516 236.44864258 381.21708984 237.02936523 380.14794922 237.62768555 C373.26870507 241.48057886 366.40265711 245.35619998 359.54248047 249.24291992 C350.05281921 254.61853295 340.52362354 259.92079016 330.98461914 265.20825195 C323.58884885 269.31130129 316.21391557 273.44919938 308.85498047 277.61791992 C306.98521644 278.67526046 305.11542545 279.73255333 303.24560547 280.78979492 C300.60905904 282.28084688 297.97351509 283.77351545 295.34130859 285.2722168 C279.63309962 294.21154884 264.93402387 302.51365328 246.2565918 297.51000977 C238.1039933 295.05427453 230.81214632 291.25707628 223.47998047 286.99291992 C221.44413558 285.82518312 219.40765068 284.65856157 217.37060547 283.49291992 C216.31421875 282.88706055 215.25783203 282.28120117 214.16943359 281.65698242 C208.71715758 278.55262347 203.22165029 275.52685487 197.72998047 272.49291992 C188.4571432 267.35954086 179.23341299 262.14616188 170.04248047 256.86791992 C157.88888368 249.88866054 145.63705357 243.09837492 133.35498047 236.34838867 C127.22484163 232.97910494 121.12074794 229.56684517 115.03076172 226.12573242 C109.64860007 223.08488609 104.25022514 220.07296765 98.85498047 217.05541992 C90.55140459 212.40963289 82.25965755 207.7436599 73.97998047 203.05541992 C66.42384965 198.77725036 58.8509581 194.53156647 51.25585938 190.32299805 C45.97455417 187.39592389 40.70744179 184.44463805 35.44702148 181.48022461 C29.11027931 177.91044667 22.76406737 174.35765984 16.41748047 170.80541992 C8.97160305 166.6375359 1.52830066 162.46526084 -5.90673828 158.27807617 C-12.12636569 154.77713126 -18.35464455 151.29166601 -24.58251953 147.80541992 C-28.74932323 145.47233123 -32.91597408 143.13896978 -37.08251953 140.80541992 C-38.24364258 140.15524902 -38.24364258 140.15524902 -39.42822266 139.49194336 C-46.40207116 135.58514488 -53.35877762 131.65076665 -60.29248047 127.6730957 C-69.34994945 122.4782209 -78.4486844 117.36489239 -87.58251953 112.30541992 C-90.99266793 110.41175162 -94.40227621 108.51711638 -97.81152344 106.62182617 C-99.94011267 105.43980618 -102.06993336 104.26000017 -104.20117188 103.08276367 C-107.0627938 101.49967906 -109.91717079 99.90424666 -112.77001953 98.30541992 C-113.60017578 97.84973633 -114.43033203 97.39405273 -115.28564453 96.92456055 C-123.43961046 92.32368191 -130.14576743 86.82764209 -135.08251953 78.80541992 C-135.08251953 77.81541992 -135.08251953 76.82541992 -135.08251953 75.80541992 C-134.45087891 75.45463379 -133.81923828 75.10384766 -133.16845703 74.74243164 C-121.40822717 68.20355744 -109.68616673 61.61897008 -98.08251953 54.80541992 C-86.86004479 48.21941729 -75.52094886 41.85597231 -64.15527344 35.52124023 C-52.12543701 28.80380098 -40.13431542 22.0167168 -28.20751953 15.11791992 C-27.4444751 14.67778564 -26.68143066 14.23765137 -25.89526367 13.78417969 C-21.98961678 11.5230157 -18.11345484 9.22316647 -14.26611328 6.86401367 C-13.48929199 6.3924585 -12.7124707 5.92090332 -11.91210938 5.43505859 C-10.43847768 4.53827928 -8.97093078 3.63139635 -7.51074219 2.71289062 C-2.62989725 -0.24572428 -2.62989725 -0.24572428 0 0 Z " fill="#293693" transform="translate(172.08251953125,624.194580078125)"/>
<path d="M0 0 C0.72058594 0.01401855 1.44117188 0.02803711 2.18359375 0.04248047 C11.44613196 0.28400364 20.15159042 2.44569392 29 5 C30.05380859 5.29535645 30.05380859 5.29535645 31.12890625 5.59667969 C48.42431044 10.53261854 65.00890409 18.62938622 79 30 C79.89460937 30.69480469 80.78921875 31.38960938 81.7109375 32.10546875 C93.90557356 41.7552858 106.90538207 53.85870074 114 68 C112.82409913 71.5277026 112.24714078 71.72315197 109.1171875 73.4609375 C108.29154297 73.92564453 107.46589844 74.39035156 106.61523438 74.86914062 C105.71095703 75.36607422 104.80667969 75.86300781 103.875 76.375 C102.46831055 77.16293945 102.46831055 77.16293945 101.03320312 77.96679688 C99.03813307 79.08398322 97.04099691 80.19748656 95.04199219 81.30761719 C90.18002196 84.01252711 85.341484 86.7586504 80.5 89.5 C78.5586396 90.59643535 76.61723345 91.6927897 74.67578125 92.7890625 C61.44993118 100.26522626 48.27860296 107.835101 35.125 115.4375 C26.7950458 120.25197066 18.44459659 125.02689539 10.0625 129.75 C-1.90117917 136.49285036 -13.79115722 143.35652093 -25.63671875 150.3046875 C-38.98743901 158.12945467 -52.43255951 165.76331344 -65.94921875 173.29736328 C-79.70470584 180.97428125 -93.37981127 188.77762174 -106.97143555 196.7409668 C-133.40286295 212.20143147 -133.40286295 212.20143147 -141 216 C-159.71851218 175.86899621 -163.45317371 135.30115384 -148.375 93.1875 C-134.24363376 55.79035479 -104.25801102 27.10686372 -68.25 10.8125 C-45.60256436 1.54177093 -24.29280517 -0.52756263 0 0 Z " fill="#5D6CBF" transform="translate(441,335)"/>
<path d="M0 0 C0.76183594 0.42112061 1.52367187 0.84224121 2.30859375 1.27612305 C3.17766357 1.75291504 4.0467334 2.22970703 4.94213867 2.72094727 C5.86744385 3.23802246 6.79274902 3.75509766 7.74609375 4.2878418 C8.71071533 4.82038574 9.67533691 5.35292969 10.66918945 5.90161133 C19.21982602 10.6389101 27.70262017 15.49476 36.1796875 20.36206055 C42.53355163 24.00624521 48.95009562 27.51597364 55.44140625 30.90893555 C65.42986781 36.14019278 75.23592084 41.64238918 85.01171875 47.26049805 C94.13834429 52.50386871 103.43283458 57.41202354 112.76025391 62.28637695 C118.13552039 65.10145802 123.4550047 68.00511323 128.74609375 70.9753418 C125.73517409 88.7264816 102.98410092 107.62259479 89.2578125 117.56518555 C81.09841366 123.25332758 72.552265 127.95573013 63.53759766 132.14086914 C61.9866637 132.86328564 60.44899426 133.61405148 58.9140625 134.36987305 C26.25573957 149.43191071 -13.45963076 148.34133306 -46.9140625 136.7019043 C-79.75718624 124.20010536 -103.76195311 102.93503585 -123.25390625 73.9753418 C-123.88554687 73.06397461 -124.5171875 72.15260742 -125.16796875 71.21362305 C-126.25390625 68.9753418 -126.25390625 68.9753418 -126.16015625 67.05004883 C-124.80684891 63.95187917 -122.76877402 63.16654427 -119.83984375 61.54174805 C-118.12704224 60.57845581 -118.12704224 60.57845581 -116.37963867 59.59570312 C-115.12950402 58.90954984 -113.87925711 58.22360103 -112.62890625 57.5378418 C-111.34735922 56.82254879 -110.06652228 56.10598218 -108.78637695 55.38818359 C-106.18584455 53.93222605 -103.58169288 52.48310614 -100.97412109 51.03979492 C-95.77535955 48.15990663 -90.61022093 45.22101625 -85.44140625 42.2878418 C-79.81741004 39.1095494 -74.18928138 35.93863697 -68.55859375 32.7722168 C-52.96007668 23.99149792 -37.46698217 15.0353704 -22.0703125 5.9050293 C-21.28253418 5.43863037 -20.49475586 4.97223145 -19.68310547 4.49169922 C-18.2338894 3.63261807 -16.78618784 2.77097459 -15.34033203 1.90625 C-9.55792371 -1.52360558 -6.29266327 -2.86073524 0 0 Z " fill="#293693" transform="translate(427.25390625,484.024658203125)"/>
</svg>
