<?xml version="1.0" encoding="UTF-8"?>
<svg version="1.1" xmlns="http://www.w3.org/2000/svg" width="1280" height="1280">
<path d="M0 0 C10.50815381 9.4912357 15.92203339 22.46587307 16.72436905 36.46104813 C16.78780624 40.10066425 16.79042845 43.73536938 16.77001953 47.37548828 C16.76945422 48.76610811 16.76977431 50.15672854 16.77090454 51.54734802 C16.77147438 55.29255755 16.75978032 59.03763692 16.74575663 62.78281641 C16.73318731 66.70789574 16.73207391 70.6329786 16.72970581 74.55807495 C16.72350916 81.9774156 16.70712311 89.39669676 16.68700683 96.81601131 C16.66459108 105.26831101 16.65364017 113.72061366 16.64361596 122.17293572 C16.62275511 139.54762265 16.58610178 156.9222281 16.54296875 174.296875 C6.31296875 174.296875 -3.91703125 174.296875 -14.45703125 174.296875 C-16.70703125 165.296875 -16.70703125 165.296875 -17.58203125 161.296875 C-17.74960937 160.53375 -17.9171875 159.770625 -18.08984375 158.984375 C-18.21101562 158.4275 -18.3321875 157.870625 -18.45703125 157.296875 C-19.3284375 157.94914062 -20.19984375 158.60140625 -21.09765625 159.2734375 C-41.21332818 174.12484975 -62.53284269 181.07358966 -87.609375 177.8359375 C-100.54782473 175.56603404 -112.34963554 170.41133825 -120.39453125 159.72265625 C-129.70681148 145.81243766 -131.24122558 130.09530834 -128.9609375 113.73828125 C-125.62126532 99.22863205 -117.66374258 87.48521134 -105.35546875 79.10546875 C-79.97658772 63.26932061 -51.44336006 62.75107217 -22.45703125 63.296875 C-22.52214525 41.51636776 -22.52214525 41.51636776 -32.58203125 23.046875 C-50.54082775 12.11543365 -74.05730311 15.98550919 -93.45166016 20.68554688 C-98.77512485 22.03809658 -103.97111635 23.6919476 -109.13671875 25.5625 C-111.45703125 26.296875 -111.45703125 26.296875 -114.45703125 26.296875 C-115.30014244 23.07018084 -116.12976993 19.84016582 -116.95703125 16.609375 C-117.19550781 15.69736328 -117.43398438 14.78535156 -117.6796875 13.84570312 C-117.90527344 12.95947266 -118.13085938 12.07324219 -118.36328125 11.16015625 C-118.57275391 10.34844971 -118.78222656 9.53674316 -118.99804688 8.70043945 C-119.47975414 6.177882 -119.53677968 3.85879317 -119.45703125 1.296875 C-106.48886758 -4.94705565 -92.60656985 -9.17761634 -78.45703125 -11.703125 C-77.46960938 -11.90808594 -76.4821875 -12.11304688 -75.46484375 -12.32421875 C-50.46307559 -16.84448856 -20.8238965 -15.98602156 0 0 Z M-79.45703125 97.296875 C-80.38515625 97.85375 -81.31328125 98.410625 -82.26953125 98.984375 C-86.90800614 103.8879056 -90.01641605 110.5407753 -90.45703125 117.296875 C-90.53953125 118.51375 -90.62203125 119.730625 -90.70703125 120.984375 C-90.53171743 129.31975041 -88.34058841 136.58993455 -82.48828125 142.640625 C-74.92251667 148.80963305 -66.4117068 149.70342231 -57 148.86328125 C-47.30985867 147.31414068 -38.49043099 142.80656285 -30.45703125 137.296875 C-29.80765091 136.92162186 -29.15827057 136.54636871 -28.48921204 136.15974426 C-24.16725367 133.45277882 -24.16725367 133.45277882 -21.75175476 129.13691711 C-21.53209676 126.56429725 -21.55581739 124.10263115 -21.67578125 121.5234375 C-21.69276062 120.1378212 -21.69276062 120.1378212 -21.71008301 118.72421265 C-21.75469476 115.78794571 -21.85501898 112.85665259 -21.95703125 109.921875 C-21.99717835 107.92585203 -22.03367698 105.92975213 -22.06640625 103.93359375 C-22.15437951 99.05278546 -22.29231405 94.17567187 -22.45703125 89.296875 C-26.7396324 89.22134753 -31.02185603 89.16764198 -35.30493164 89.13208008 C-36.75454479 89.11721799 -38.2041149 89.09692233 -39.65356445 89.07055664 C-53.66333526 88.82255306 -67.1999463 89.77602287 -79.45703125 97.296875 Z " fill="#C93032" transform="translate(561.45703125,983.703125)"/>
<path d="M0 0 C10.21534404 8.34412214 16.1160894 19.68702971 18.08984375 32.70703125 C18.36318422 37.42481925 18.34293079 42.13117112 18.31689453 46.85571289 C18.31632942 48.2658894 18.31664893 49.6760665 18.31777954 51.08624268 C18.31835015 54.88935986 18.30664345 58.69234925 18.29263163 62.49543691 C18.2800753 66.47924595 18.27894992 70.46305837 18.27658081 74.44688416 C18.27038039 81.97958873 18.25398915 89.51223482 18.23388183 97.04491371 C18.21147794 105.62536205 18.20051814 114.20581327 18.19049096 122.78628361 C18.16962155 140.42657266 18.1329634 158.06678159 18.08984375 175.70703125 C7.85984375 175.70703125 -2.37015625 175.70703125 -12.91015625 175.70703125 C-15.16015625 163.33203125 -15.16015625 163.33203125 -14.91015625 157.70703125 C-15.90273438 158.41988281 -16.8953125 159.13273437 -17.91796875 159.8671875 C-29.73098968 168.24127099 -41.49114538 175.77816967 -55.91015625 178.70703125 C-56.80734375 178.89007812 -57.70453125 179.073125 -58.62890625 179.26171875 C-76.61310874 181.70243195 -96.04201853 179.85813454 -110.91015625 168.70703125 C-122.11986898 158.61828979 -127.06099807 146.50586066 -128.1328125 131.61328125 C-128.56089766 116.27666511 -124.72802571 102.11605822 -114.59765625 90.39453125 C-97.20089094 72.33420773 -71.93720588 65.12978532 -47.29150391 64.63427734 C-38.4974078 64.52924485 -29.70390569 64.59539185 -20.91015625 64.70703125 C-21.02151519 61.22729065 -21.15177757 57.74849191 -21.28515625 54.26953125 C-21.31609375 53.29564453 -21.34703125 52.32175781 -21.37890625 51.31835938 C-21.74068753 42.30397582 -22.52318462 35.06922581 -27.91015625 27.70703125 C-27.91015625 27.04703125 -27.91015625 26.38703125 -27.91015625 25.70703125 C-28.48894531 25.41828125 -29.06773437 25.12953125 -29.6640625 24.83203125 C-31.05322829 24.13624038 -32.43725717 23.4299515 -33.8125 22.70703125 C-54.61016707 12.48783208 -82.43719495 18.54453561 -103.39404297 25.53564453 C-104.92569904 26.06227693 -106.45480629 26.59643276 -107.98022461 27.14086914 C-109.91015625 27.70703125 -109.91015625 27.70703125 -112.91015625 27.70703125 C-113.78147986 24.3153649 -114.62913943 20.91821043 -115.47265625 17.51953125 C-115.71951172 16.55982422 -115.96636719 15.60011719 -116.22070312 14.61132812 C-116.44951172 13.67998047 -116.67832031 12.74863281 -116.9140625 11.7890625 C-117.12877197 10.93546143 -117.34348145 10.08186035 -117.56469727 9.20239258 C-117.96111607 6.33893209 -117.87236896 4.43844587 -116.91015625 1.70703125 C-115.17382812 0.484375 -115.17382812 0.484375 -112.87890625 -0.35546875 C-112.01724854 -0.67507568 -111.15559082 -0.99468262 -110.26782227 -1.32397461 C-109.32479248 -1.64374268 -108.3817627 -1.96351074 -107.41015625 -2.29296875 C-106.44070068 -2.63400635 -105.47124512 -2.97504395 -104.47241211 -3.32641602 C-93.20563676 -7.12207861 -81.61530827 -9.33131302 -69.91015625 -11.29296875 C-68.79382813 -11.49535156 -67.6775 -11.69773437 -66.52734375 -11.90625 C-43.99538474 -14.31517434 -19.08187319 -13.62990942 0 0 Z M-83.03515625 103.70703125 C-89.03067918 110.86586459 -88.57443729 119.85515124 -88.10107422 128.68798828 C-87.50566827 134.98467272 -85.21762708 139.85753129 -80.59765625 144.14453125 C-72.89801878 149.89489341 -64.49634613 151.46663252 -55.03125 150.375 C-48.87948561 149.07768914 -43.34475508 146.69770577 -37.72265625 143.95703125 C-37.08166992 143.64644775 -36.44068359 143.33586426 -35.78027344 143.01586914 C-34.48453836 142.35163129 -33.20969941 141.64526909 -31.95727539 140.90258789 C-29.91015625 139.70703125 -29.91015625 139.70703125 -27.43920898 138.63452148 C-24.33321498 136.94114834 -22.83806002 135.70705707 -20.91015625 132.70703125 C-19.38301685 125.72585177 -20.06937059 118.35502253 -20.34765625 111.26953125 C-20.39283176 109.27808481 -20.43389098 107.28654047 -20.47070312 105.29492188 C-20.56957638 100.42986639 -20.72468592 95.5695242 -20.91015625 90.70703125 C-25.21106771 90.63162415 -29.51160651 90.57785166 -33.81298828 90.54223633 C-35.26943685 90.52735501 -36.72584233 90.50704329 -38.18212891 90.48071289 C-53.93527719 90.20348357 -71.63289847 91.4114007 -83.03515625 103.70703125 Z " fill="#C93132" transform="translate(901.91015625,982.29296875)"/>
<path d="M0 0 C8.68605856 3.57661235 12.84707574 14.90005776 16.42578125 23.04296875 C27.3806504 49.47511859 24.51323639 78.97524089 14 105 C11.6066304 110.47866121 8.84609399 115.74609405 6 121 C5.68836914 121.59232422 5.37673828 122.18464844 5.05566406 122.79492188 C-0.3105979 132.98230173 -6.90056756 141.97277798 -14 151 C-14.77472656 151.99 -15.54945313 152.98 -16.34765625 154 C-28.45187551 169.11379828 -42.17935649 183.53353813 -57 196 C-58.03501253 196.8971028 -59.06874562 197.79568275 -60.1015625 198.6953125 C-66.01488522 203.83050046 -71.99150261 208.83361095 -78.1875 213.625 C-83.54679597 217.77317245 -88.58929281 222.12422568 -93.5546875 226.7421875 C-95.65882391 228.68498437 -97.80582946 230.53616072 -100 232.375 C-120.37849255 250.22174501 -139.04142519 276.47440747 -141.1640625 304.13818359 C-142.86105236 336.69917657 -126.18932753 363.4084611 -108 389 C-96.59962151 405.05771552 -85.32634041 421.08255862 -77 439 C-77.99 439.33 -78.98 439.66 -80 440 C-80.556875 439.43152344 -81.11375 438.86304688 -81.6875 438.27734375 C-82.450625 437.50519531 -83.21375 436.73304688 -84 435.9375 C-85.11375 434.80634766 -85.11375 434.80634766 -86.25 433.65234375 C-89.05751379 430.9445286 -91.96275615 428.39293044 -94.90722656 425.83666992 C-104.83552513 417.12334863 -114.27166811 407.82127997 -123.625 398.5 C-124.35831543 397.77127686 -125.09163086 397.04255371 -125.84716797 396.29174805 C-129.88676932 392.24056793 -133.74651494 388.08936494 -137.48095703 383.75537109 C-139.31038849 381.64132221 -141.21702573 379.60565464 -143.125 377.5625 C-165.10243975 353.14728963 -186.23456569 322.46409163 -185.30859375 288.41015625 C-183.75485279 259.121172 -160.59580409 235.08604574 -140.02734375 216.1875 C-138.03966636 214.43192931 -136.02210336 212.71582953 -134 211 C-132.96143394 210.09858363 -131.92375043 209.19614991 -130.88671875 208.29296875 C-123.34783882 201.74736912 -115.64133934 195.47335362 -107.75 189.35888672 C-104.8228513 187.08593616 -101.91224359 184.79199464 -99 182.5 C-95.46787384 179.72267352 -91.93413338 176.9474823 -88.39453125 174.1796875 C-78.50774466 166.44383791 -68.76408499 158.56739163 -59.25 150.375 C-58.63584229 149.8485791 -58.02168457 149.3221582 -57.38891602 148.77978516 C-53.06486073 145.03347543 -49.0050072 141.08356045 -45 137 C-42.62091937 134.60692478 -40.24408323 132.22861317 -37.78125 129.921875 C-12.53178013 105.88299615 2.22638505 74.30973322 4.19140625 39.62109375 C4.4405858 26.34812988 2.13542206 13.06242218 0 0 Z " fill="#CA3031" transform="translate(718,56)"/>
<path d="M0 0 C14.19 0 28.38 0 43 0 C59.25498774 51.53972506 59.25498774 51.53972506 66.8114624 75.75650024 C67.38452082 77.59203992 67.95842071 79.42731715 68.53326416 81.26229858 C79.24519612 115.46871831 79.24519612 115.46871831 82.875 132.3125 C83.08640625 133.26705078 83.2978125 134.22160156 83.515625 135.20507812 C84.01616028 137.4688627 84.51110219 139.73367976 85 142 C97.64642008 105.09032054 108.33584701 67.9377805 115.3125 29.5 C115.43578674 28.82102661 115.55907349 28.14205322 115.68609619 27.44250488 C117.33237397 18.3102385 118.68615971 9.19688202 120 0 C133.86 0 147.72 0 162 0 C161.31670334 6.1496699 160.50204752 11.99702401 159.21484375 18.01171875 C159.03836807 18.84978058 158.8618924 19.68784241 158.68006897 20.55130005 C158.10552179 23.26475815 157.52270767 25.97632207 156.9375 28.6875 C156.63646362 30.08734634 156.63646362 30.08734634 156.3293457 31.51547241 C150.59383523 58.09104535 143.42754223 84.14521588 135 110 C134.79117188 110.64086548 134.58234375 111.28173096 134.3671875 111.9420166 C129.32721269 127.37025767 123.94868232 142.62108115 117.75 157.625 C117.27908936 158.76710938 116.80817871 159.90921875 116.32299805 161.0859375 C112.87424152 169.277861 108.99442331 177.01115337 105 185 C89.16 185 73.32 185 57 185 C53.62449966 175.99866577 53.62449966 175.99866577 52.59985352 172.71704102 C52.36351196 171.96381058 52.12717041 171.21058014 51.88366699 170.43452454 C51.63459595 169.6324205 51.3855249 168.83031647 51.12890625 168.00390625 C50.85494019 167.12772141 50.58097412 166.25153656 50.29870605 165.34880066 C49.38414335 162.42080535 48.47319348 159.49170088 47.5625 156.5625 C46.90491234 154.4527852 46.24727756 152.34308509 45.58959961 150.23339844 C38.11158946 126.22073232 30.72761351 102.17894835 23.34566116 78.13661957 C20.33312121 68.3257707 17.30759834 58.51902804 14.2734375 48.71484375 C13.1754803 45.1627844 12.07778499 41.61064423 10.98019409 38.05847168 C10.29457266 35.84189593 9.6078569 33.62565831 8.91995239 31.40979004 C7.97368088 28.36132216 7.03136601 25.3116562 6.08984375 22.26171875 C5.81888885 21.39272446 5.54793396 20.52373016 5.26876831 19.62840271 C3.26453315 13.11599665 1.65971405 6.63885618 0 0 Z " fill="#CA3132" transform="translate(598,973)"/>
<path d="M0 0 C1.03769531 -0.020625 2.07539063 -0.04125 3.14453125 -0.0625 C9.35145705 -0.09380858 15.60151396 0.08291631 21.125 3.25 C21.455 4.24 21.785 5.23 22.125 6.25 C20.99707031 6.33636719 19.86914062 6.42273438 18.70703125 6.51171875 C-3.41895874 8.40394789 -35.76205006 13.20567056 -52.28515625 29.6484375 C-54.10843051 32.12017076 -54.10843051 32.12017076 -53.86328125 34.91015625 C-52.27399957 38.67292197 -49.88733487 39.31782611 -46.2734375 40.9375 C-5.96174772 56.5061526 39.43427484 58.59770773 82.125 61.25 C82.8615683 61.29713135 83.5981366 61.3442627 84.35702515 61.39282227 C99.62046847 62.35477993 114.89820286 62.62971341 130.1875 62.875 C130.86293098 62.88590164 131.53836197 62.89680328 132.23426056 62.90803528 C276.65834332 66.01469138 276.65834332 66.01469138 434.125 26.25 C436.75713183 22.6402192 437.15347578 21.07579761 437 16.625 C436.15271075 13.35688434 435.2717971 11.77015312 433.125 9.25 C433.125 8.59 433.125 7.93 433.125 7.25 C439.15179367 7.6266746 443.93682042 11.81145663 447.83203125 16.15234375 C450.21120926 20.01221865 449.8836217 23.88957443 449.125 28.25 C444.66548073 39.26643801 428.64042828 46.08263802 418.44140625 50.5078125 C358.5689882 75.23496608 289.12166222 81.74998908 225.125 85.25 C224.31727142 85.29426117 223.50954285 85.33852234 222.67733765 85.38412476 C209.99616701 86.0638405 197.31698493 86.48359171 184.62084961 86.75268555 C181.79597494 86.81285196 178.97123914 86.87782604 176.14648438 86.94335938 C100.5444756 88.64774519 24.90906776 83.27020915 -49.875 72.25 C-50.62670471 72.13978516 -51.37840942 72.02957031 -52.15289307 71.91601562 C-95.88840824 65.46689897 -95.88840824 65.46689897 -104.875 55.25 C-107.19963094 51.38081562 -107.5542906 47.67828682 -106.875 43.25 C-97.11584599 24.12205813 -70.26107766 15.35466616 -51.20019531 9.05444336 C-34.52540866 3.76721914 -17.51593027 0.08639176 0 0 Z " fill="#3074B8" transform="translate(449.875,732.75)"/>
<path d="M0 0 C13.86 0 27.72 0 42 0 C42.02262427 28.20863999 42.04102412 56.41727257 42.05181217 84.62591934 C42.05695568 97.72538835 42.0639611 110.82485129 42.07543945 123.92431641 C42.08544594 135.34954862 42.09186756 146.77477645 42.09408849 158.20001292 C42.09538552 164.24251141 42.09840693 170.28499733 42.10573006 176.32749176 C42.11258465 182.03030921 42.11459802 187.73310908 42.11310768 193.43593025 C42.11337981 195.51417957 42.11532837 197.59242956 42.11920547 199.67067528 C42.18103985 234.56672551 42.18103985 234.56672551 39.6875 249 C39.55706299 249.77923828 39.42662598 250.55847656 39.29223633 251.36132812 C36.56925473 266.74641314 30.26862652 279.25285329 20 291 C19.48050781 291.60328125 18.96101563 292.2065625 18.42578125 292.828125 C10.64920721 301.21193782 0.55984168 307.47561067 -9.5625 312.625 C-10.22886475 312.96781006 -10.89522949 313.31062012 -11.58178711 313.66381836 C-18.14030911 316.86352406 -18.14030911 316.86352406 -22 316 C-24.17578125 313.9453125 -24.17578125 313.9453125 -26.3125 311.125 C-27.46492188 309.62839844 -27.46492188 309.62839844 -28.640625 308.1015625 C-29.41921875 307.07804687 -30.1978125 306.05453125 -31 305 C-33.18392767 302.36048477 -35.37406089 299.72627386 -37.56640625 297.09375 C-39 295 -39 295 -39 292 C-36.796875 290.5625 -36.796875 290.5625 -33.75 289 C-20.31724647 281.44407614 -9.32031912 270.28953981 -4.625 255.3125 C-0.87431202 239.60277468 -0.69634686 223.92067116 -0.68115234 207.86499023 C-0.67183395 205.58664604 -0.66166251 203.30830519 -0.65071106 201.02996826 C-0.62361228 194.89688012 -0.60832189 188.76381468 -0.59528303 182.63068271 C-0.57956365 176.20184676 -0.55280189 169.77305658 -0.5272522 163.34425354 C-0.48590467 152.5707421 -0.45126685 141.79723162 -0.421875 131.02368164 C-0.39160688 119.93577261 -0.35721925 108.84788873 -0.31738281 97.76000977 C-0.31492126 97.07448009 -0.31245972 96.38895041 -0.30992357 95.6826471 C-0.29754737 92.24292718 -0.28509115 88.80320756 -0.27259517 85.36348808 C-0.16932758 56.90902332 -0.08162955 28.45453556 0 0 Z " fill="#C93132" transform="translate(365,908)"/>
<path d="M0 0 C-1.36090632 4.08271897 -3.95099339 4.86037051 -7.5625 6.75 C-32.77351782 20.46282769 -57.18205956 36.5967094 -80 54 C-80.58394531 54.44118164 -81.16789063 54.88236328 -81.76953125 55.33691406 C-90.14476752 61.68220472 -98.02199631 68.41853747 -105.61474609 75.68212891 C-106.80829887 76.81762378 -108.0215186 77.93238085 -109.23828125 79.04296875 C-121.17775072 90.26463444 -131.76827811 106.01077092 -132.34375 122.72143555 C-132.70319338 147.49213884 -116.95292683 166.39094554 -103.14233398 185.58129883 C-99.76507085 190.32077411 -96.75439892 194.96353006 -94.1875 200.1875 C-93.34251953 201.87939453 -93.34251953 201.87939453 -92.48046875 203.60546875 C-86.46533424 217.39742625 -87.14723924 231.66459629 -92.1875 245.6875 C-100.59185202 265.79964877 -116.81187277 281.19093536 -134.125 293.8125 C-134.86508301 294.35205322 -135.60516602 294.89160645 -136.36767578 295.44750977 C-146.89688465 302.9622045 -146.89688465 302.9622045 -152 305 C-152.99 304.67 -153.98 304.34 -155 304 C-154.52691406 303.57332031 -154.05382812 303.14664062 -153.56640625 302.70703125 C-140.71387525 290.55600291 -131.30367134 274.65916423 -130.6875 256.6875 C-130.98824427 243.22919398 -136.11532437 232.14729699 -144.5703125 221.9375 C-157.7204854 206.03889868 -169.36397816 189.70068985 -176 170 C-176.61875 168.19402344 -176.61875 168.19402344 -177.25 166.3515625 C-183.74406506 144.47919058 -180.72729366 122.5954243 -170.05859375 102.71484375 C-169.37545869 101.47487015 -168.68946877 100.23646304 -168 99 C-167.18208984 97.51693359 -167.18208984 97.51693359 -166.34765625 96.00390625 C-161.96177209 88.6154608 -156.32164145 82.55438967 -150.36914062 76.42041016 C-149.24186072 75.25091756 -148.1406111 74.05639099 -147.046875 72.85546875 C-116.53069731 40.20865703 -44.85219681 0 0 0 Z " fill="#C93132" transform="translate(820,219)"/>
<path d="M0 0 C0 0.66 0 1.32 0 2 C-0.62229492 2.18062988 -1.24458984 2.36125977 -1.88574219 2.54736328 C-8.18934709 4.37830027 -14.49004252 6.21898533 -20.78955078 8.06396484 C-23.62683426 8.89120019 -26.46696042 9.70740258 -29.30859375 10.51953125 C-58.12024733 17.84790798 -58.12024733 17.84790798 -82 34 C-82.33498301 36.66834966 -82.33498301 36.66834966 -82 39 C-80.34461042 39.69419563 -78.67363977 40.35103764 -77 41 C-75.783125 41.474375 -74.56625 41.94875 -73.3125 42.4375 C-53.72036826 48.79691325 -31.62603413 48.89861487 -11.25 49.625 C-10.1475293 49.66512207 -9.04505859 49.70524414 -7.90917969 49.74658203 C14.85467166 50.43805251 37.6212962 49.99147377 60.375 49.1875 C61.64081909 49.14365173 62.90663818 49.09980347 64.21081543 49.05462646 C130.66798108 46.7208464 196.35896479 39.55096664 262 29 C261 32 261 32 258.98144531 33.22338867 C258.10584961 33.6176001 257.23025391 34.01181152 256.328125 34.41796875 C255.36084473 34.86374268 254.39356445 35.3095166 253.39697266 35.76879883 C252.35847168 36.23697021 251.3199707 36.7051416 250.25 37.1875 C243.69673896 40.19626436 237.49833784 43.12188154 231.625 47.3125 C222.12555348 53.31986207 210.88248753 54.91648171 200 57 C199.26620117 57.14093079 198.53240234 57.28186157 197.77636719 57.42706299 C172.64490611 62.21949153 147.47703098 65.71313888 122 68 C121.20343994 68.07176453 120.40687988 68.14352905 119.58618164 68.21746826 C113.89241776 68.7273893 108.19703465 69.21557551 102.5 69.6875 C101.76656372 69.74852905 101.03312744 69.80955811 100.27746582 69.87243652 C81.54697174 71.41098635 62.83517923 72.15996759 44.04296875 72.16796875 C42.19908119 72.17120194 40.35519386 72.17456733 38.51130676 72.17805481 C34.67525643 72.18397811 30.83922839 72.18590197 27.00317383 72.18530273 C23.1457039 72.18522182 19.28835361 72.1921212 15.4309082 72.20581055 C-8.13020794 72.28803684 -31.51013734 71.9631387 -55 70 C-55.93983734 69.92194122 -56.87967468 69.84388245 -57.84799194 69.76345825 C-63.05433101 69.3171796 -68.24673821 68.7871451 -73.4375 68.1875 C-74.17463226 68.10418427 -74.91176453 68.02086853 -75.67123413 67.93502808 C-126.05124873 62.18435075 -126.05124873 62.18435075 -140 50 C-142 47 -142 47 -141.9375 43.625 C-140.12439609 36.61433154 -134.63343103 34.02850809 -128.76293945 30.54956055 C-99.26557264 14.00632584 -64.31570367 5.34627943 -31 1 C-29.56140625 0.80277344 -29.56140625 0.80277344 -28.09375 0.6015625 C-18.7936959 -0.46048071 -9.34506658 -0.08237571 0 0 Z " fill="#3173B9" transform="translate(549,496)"/>
<path d="M0 0 C-1 3 -1 3 -3.5 4.75 C-6.74557267 7.6710154 -6.75448527 9.74441143 -7 14 C3.86498773 21.9571189 18.44951699 22.71052815 31.50854492 23.95581055 C33.93348172 24.18711671 36.3562996 24.43480763 38.77929688 24.68554688 C82.08008262 29.08451873 123.94296411 26.8054368 166.73608398 19.33764648 C167.62519974 19.18421783 168.51431549 19.03078918 169.43037415 18.87271118 C171.08991274 18.58494582 172.74845713 18.2913551 174.40568542 17.99057007 C181.66058017 16.73089836 187.95394343 15.8644273 194.65234375 19.59765625 C195.66876953 20.1488916 196.68519531 20.70012695 197.73242188 21.26806641 C199.31893555 22.15631104 199.31893555 22.15631104 200.9375 23.0625 C209.17819545 27.53813374 217.32261563 31.68250116 226.13647461 34.90649414 C227.78793743 35.52927293 229.39983733 36.25524344 231 37 C231.33 37.99 231.66 38.98 232 40 C201.48884268 52.90856656 169.85648709 60.94509651 137 65 C136.10571289 65.11182617 135.21142578 65.22365234 134.29003906 65.33886719 C86.57404612 71.17225314 30.46780282 71.13403295 -14 51 C-15.03125 50.53851562 -16.0625 50.07703125 -17.125 49.6015625 C-25.6880336 45.55552912 -34.61024824 40.77950353 -39 32 C-40.22511351 27.50791711 -40.38853239 24.06161052 -38.2421875 19.81640625 C-30.89063058 9.06648811 -13.0072654 0 0 0 Z " fill="#3173B9" transform="translate(534,675)"/>
<path d="M0 0 C-1.3487075 2.95803481 -2.89568549 5.20796367 -5.0625 7.625 C-8.47494151 11.44626702 -9.14592889 13.7041736 -9.5234375 18.9296875 C-8.71375065 22.13218026 -6.64192847 23.12349647 -4 25 C6.03532641 29.46677066 17.01940415 30.1772773 27.8125 31.1875 C29.44868364 31.3523691 31.08475263 31.51838017 32.72070312 31.68554688 C37.47717148 32.16411355 42.23702172 32.59188223 47 33 C48.83026733 33.16121338 48.83026733 33.16121338 50.69750977 33.32568359 C64.87139291 34.39436081 79.10634062 34.24863446 93.3125 34.25 C94.36743023 34.25022093 94.36743023 34.25022093 95.44367218 34.25044632 C117.43356814 34.24618609 139.16256791 33.88303941 161 31 C161.9411969 30.87651184 162.8823938 30.75302368 163.85211182 30.62579346 C193.35961109 26.79092184 193.35961109 26.79092184 222.63598633 21.53320312 C231.57004313 20.11713664 231.57004313 20.11713664 235.37890625 22.46875 C236.45978516 23.47421875 236.45978516 23.47421875 237.5625 24.5 C245.57543851 31.38745707 254.91581509 36.77306083 265 40 C265 40.99 265 41.98 265 43 C219.760398 54.89474022 174.74496282 63.15404755 128 66 C127.07251953 66.05784668 126.14503906 66.11569336 125.18945312 66.17529297 C77.5545323 69.03984834 0.25628195 73.44649346 -39 42 C-42.66445498 38.53644715 -44.27412812 35.50097088 -44.5625 30.4375 C-44.17734709 24.45749425 -41.21969063 20.95538033 -36.8515625 17.109375 C-33.14164679 13.97526059 -29.24400382 11.65573038 -24.9375 9.4375 C-24.20523193 9.054729 -23.47296387 8.67195801 -22.71850586 8.27758789 C-6.50523426 0 -6.50523426 0 0 0 Z " fill="#3173B9" transform="translate(515,587)"/>
<path d="M0 0 C1.92344663 5.38062195 -0.73106684 10.07141105 -3 15 C-4.74824049 17.92404826 -6.74569864 20.45074332 -9 23 C-9.55171875 23.64453125 -10.1034375 24.2890625 -10.671875 24.953125 C-47.07669362 64.46946658 -122.94526569 67.82749785 -173 73 C-173.77174561 73.07992187 -174.54349121 73.15984375 -175.33862305 73.2421875 C-250.56209031 80.94987806 -328.8240843 81.53621501 -404 73 C-404.75025452 72.91492188 -405.50050903 72.82984375 -406.27349854 72.7421875 C-466.26808626 65.86126655 -466.26808626 65.86126655 -485 54 C-484.67 53.34 -484.34 52.68 -484 52 C-482.86433594 52.17015625 -481.72867187 52.3403125 -480.55859375 52.515625 C-445.54406302 57.60448923 -410.31397419 60.13672782 -375 62 C-374.28019958 62.03867187 -373.56039917 62.07734375 -372.81878662 62.1171875 C-282.31097102 66.94441999 -188.16730097 61.36196698 -7 7 C-4.56461913 4.75398871 -2.24010717 2.44038165 0 0 Z " fill="#3173B9" transform="translate(934,780)"/>
<path d="M0 0 C11.10005008 10.13314677 17.63491194 23.06237892 19.2421875 38.046875 C19.92091433 56.86033436 11.81851093 72.68969996 -0.3203125 86.421875 C-1.79156743 87.97109386 -3.27019562 89.51336068 -4.7578125 91.046875 C-5.33402344 91.6965625 -5.91023437 92.34625 -6.50390625 93.015625 C-31.25520731 119.91681635 -73.46968193 134.21539827 -107.7578125 143.046875 C-108.4178125 143.046875 -109.0778125 143.046875 -109.7578125 143.046875 C-109.44882056 140.16295026 -108.88186274 139.15981979 -106.70703125 137.1796875 C-103.20898283 134.64997302 -99.56614903 132.68879007 -95.7578125 130.671875 C-81.36346875 122.85600936 -67.11265567 113.84592311 -54.7578125 103.046875 C-53.95859375 102.3559375 -53.159375 101.665 -52.3359375 100.953125 C-49.7705465 98.69048201 -47.25883295 96.3803994 -44.7578125 94.046875 C-43.85933594 93.22574219 -42.96085938 92.40460938 -42.03515625 91.55859375 C-28.05940447 78.29047497 -17.18919563 60.91577315 -16.4453125 41.171875 C-16.73717758 28.64113412 -21.84112139 18.35844788 -30.2734375 9.375 C-40.45571272 -0.16688055 -54.04523022 -4.29695388 -67.734375 -4.25390625 C-73.461824 -3.97759439 -78.87017121 -2.38487873 -84.359375 -0.828125 C-87.7578125 0.046875 -87.7578125 0.046875 -91.7578125 0.046875 C-89.0275612 -5.8856804 -85.23061036 -8.94353751 -79.265625 -11.37890625 C-52.48880666 -20.62531288 -22.2670244 -18.92341371 0 0 Z " fill="#3173B8" transform="translate(915.7578125,504.953125)"/>
<path d="M0 0 C6.6 0 13.2 0 20 0 C20.99 2.31 21.98 4.62 23 7 C24.54571278 4.68143083 25.79618552 2.49361571 27 0 C28.66611905 -0.042721 30.33382885 -0.04063832 32 0 C33 1 33 1 33.09765625 4.59765625 C33.0909822 6.08596867 33.07902183 7.57426432 33.0625 9.0625 C33.05798828 9.82111328 33.05347656 10.57972656 33.04882812 11.36132812 C33.0370068 13.24091871 33.01907078 15.12046899 33 17 C31.35 17 29.7 17 28 17 C27.67 15.68 27.34 14.36 27 13 C26.34 14.32 25.68 15.64 25 17 C23.0625 16.6875 23.0625 16.6875 21 16 C20.67 15.01 20.34 14.02 20 13 C19.67 14.32 19.34 15.64 19 17 C17.35 17 15.7 17 14 17 C13.67 13.04 13.34 9.08 13 5 C11.68 5 10.36 5 9 5 C9 8.96 9 12.92 9 17 C7.35 17 5.7 17 4 17 C4 13.04 4 9.08 4 5 C2.68 5 1.36 5 0 5 C0 3.35 0 1.7 0 0 Z " fill="#CA3132" transform="translate(922,973)"/>
</svg>
